<?xml version="1.0" encoding="utf-8"?>
<!-- Generator: Adobe Illustrator 22.1.0, SVG Export Plug-In . SVG Version: 6.00 Build 0)  -->
<svg version="1.1" id="Layer_3" xmlns="http://www.w3.org/2000/svg" xmlns:xlink="http://www.w3.org/1999/xlink" x="0px" y="0px"
	 viewBox="0 0 351 94.5" style="enable-background:new 0 0 351 94.5;" xml:space="preserve">
<style type="text/css">
	.st0{fill:#009FA7;}
	.st1{fill:#E75C39;}
	.st2{fill:none;stroke:#009FA7;stroke-width:1.8;stroke-miterlimit:10;}
	.st3{fill:none;stroke:#E75C39;stroke-width:1.8;stroke-miterlimit:10;}
	.st4{fill:#FFFFFF;}
	.st5{fill-rule:evenodd;clip-rule:evenodd;fill:#FFFFFF;}
	.st6{fill:#003679;}
	.st7{fill-rule:evenodd;clip-rule:evenodd;fill:#003679;}
	.st8{fill:#010101;}
	.st9{fill-rule:evenodd;clip-rule:evenodd;fill:#010101;}
</style>
<g>
	<g>
		<g>
			<path class="st4" d="M288.7,44.5c-0.7,0.5-1.6,0.7-2.6,0.7c-1,0-1.8-0.2-2.5-0.6c-0.7-0.4-1.3-1-1.6-1.7
				c-0.4-0.8-0.6-1.7-0.6-2.7c0-1,0.2-1.9,0.6-2.7c0.4-0.8,0.9-1.3,1.6-1.7c0.7-0.4,1.5-0.6,2.5-0.6c1,0,1.9,0.2,2.6,0.6
				c0.7,0.4,1.2,1.1,1.5,1.9l-1.9,0.8c-0.2-0.6-0.4-1-0.7-1.3c-0.3-0.3-0.8-0.4-1.4-0.4c-0.8,0-1.5,0.3-2,0.9
				c-0.5,0.6-0.7,1.4-0.7,2.5c0,1.1,0.2,1.9,0.7,2.5c0.5,0.6,1.1,0.9,1.9,0.9c1.2,0,1.9-0.6,2.3-1.7l1.9,0.6
				C289.9,43.3,289.4,44,288.7,44.5z"/>
			<path class="st4" d="M300.4,35.3v9.8h-2v-4.1H294v4.1h-2v-9.8h2v4h4.3v-4H300.4z"/>
			<path class="st4" d="M305,45.1h-2v-9.8h2V45.1z"/>
			<path class="st4" d="M316,45.1h-2.3l-3.4-5.8l-0.8-1.6h0l0.1,1.7v5.7h-1.8v-9.8h2.3l3.4,5.7l0.8,1.7h0l-0.1-1.7v-5.7h1.8V45.1z"
				/>
			<path class="st4" d="M324.1,42.7h-3.8l-0.8,2.4h-2.1l3.6-9.8h2.4l3.6,9.8h-2.1L324.1,42.7z M323.6,41.2l-0.9-2.8l-0.4-1.5h0
				l-0.4,1.5l-0.9,2.8H323.6z"/>
			<path class="st4" d="M286.2,54.2h-1.8v3.8h-2v-9.8h4.3c1.1,0,2,0.3,2.6,0.8c0.6,0.5,0.9,1.3,0.9,2.2c0,0.7-0.2,1.3-0.5,1.8
				c-0.3,0.5-0.8,0.8-1.5,1l2.6,4h-2.3L286.2,54.2z M284.4,52.6h2c0.6,0,1-0.1,1.3-0.3c0.3-0.2,0.4-0.6,0.4-1.1
				c0-0.5-0.1-0.8-0.4-1.1c-0.3-0.2-0.7-0.3-1.3-0.3h-2V52.6z"/>
			<path class="st4" d="M299.1,48.6c0.7,0.4,1.3,1,1.6,1.7c0.4,0.8,0.6,1.7,0.6,2.7c0,1-0.2,1.9-0.6,2.7c-0.4,0.8-0.9,1.3-1.6,1.7
				c-0.7,0.4-1.5,0.6-2.5,0.6s-1.8-0.2-2.5-0.6c-0.7-0.4-1.3-1-1.6-1.7c-0.4-0.8-0.6-1.7-0.6-2.7c0-1,0.2-1.9,0.6-2.7
				c0.4-0.8,0.9-1.3,1.6-1.7c0.7-0.4,1.5-0.6,2.5-0.6S298.4,48.2,299.1,48.6z M294.6,50.5c-0.5,0.6-0.7,1.4-0.7,2.5
				c0,1.1,0.2,1.9,0.7,2.5c0.5,0.6,1.1,0.9,1.9,0.9c0.8,0,1.5-0.3,1.9-0.9s0.7-1.4,0.7-2.5c0-1.1-0.2-1.9-0.7-2.5
				c-0.5-0.6-1.1-0.9-1.9-0.9C295.7,49.7,295.1,49.9,294.6,50.5z"/>
			<path class="st4" d="M310.1,48.6c0.7,0.4,1.3,1,1.6,1.7c0.4,0.8,0.6,1.7,0.6,2.7c0,1-0.2,1.9-0.6,2.7c-0.4,0.8-0.9,1.3-1.6,1.7
				c-0.7,0.4-1.5,0.6-2.5,0.6c-1,0-1.8-0.2-2.5-0.6c-0.7-0.4-1.3-1-1.6-1.7c-0.4-0.8-0.6-1.7-0.6-2.7c0-1,0.2-1.9,0.6-2.7
				c0.4-0.8,0.9-1.3,1.6-1.7c0.7-0.4,1.5-0.6,2.5-0.6C308.5,48,309.4,48.2,310.1,48.6z M305.6,50.5c-0.5,0.6-0.7,1.4-0.7,2.5
				c0,1.1,0.2,1.9,0.7,2.5s1.1,0.9,1.9,0.9c0.8,0,1.5-0.3,1.9-0.9s0.7-1.4,0.7-2.5c0-1.1-0.2-1.9-0.7-2.5c-0.5-0.6-1.1-0.9-1.9-0.9
				C306.7,49.7,306.1,49.9,305.6,50.5z"/>
			<path class="st4" d="M325,57.9h-1.8v-5.1l0.1-2.9h0l-2.7,8h-1.7l-2.7-8h0l0.1,2.9v5.1h-1.9v-9.8h3l1.8,5.3l0.6,2.2h0l0.6-2.2
				l1.8-5.4h2.9V57.9z"/>
		</g>
		<path class="st4" d="M269.8,40.2c-1,0.9-2.5,1.3-4.2,1.3c-0.1,0-0.2,0-0.3,0v5.1c0.1,0,0.2,0,0.2,0c3.2,0,5.9-0.7,8.1-2.2
			c2.1-1.3,3.5-3.4,4.4-6l-6.1-1.7C271.4,38.3,270.7,39.4,269.8,40.2z"/>
		<polygon class="st4" points="297.6,93.5 297.6,64.6 290.8,64.6 290.8,76.4 285.1,76.4 285.1,81.4 290.8,81.4 290.8,93.5 		"/>
		<polygon class="st4" points="342,69.4 344,76.2 351,76.2 347.1,65.1 325.9,65.1 322,76.2 328.8,76.2 330.9,69.4 		"/>
		<polygon class="st4" points="341,39.5 332.3,24.4 332.3,35.8 332.6,36.5 344.1,56.6 344.1,45.2 		"/>
		<rect x="290.6" y="5.7" class="st4" width="6.8" height="14"/>
		<rect x="311.2" y="0.3" class="st4" width="5.6" height="27.9"/>
		<path class="st4" d="M272.6,19c-2.2-1.3-4.9-2-8-2c-0.2,0-0.4,0-0.6,0l-0.1,0c-2.6,0.1-4.9,0.7-6.8,1.7c-1.2,0.6-2.2,1.5-3.1,2.5
			c-0.7,0.8-1.3,1.7-1.8,2.6c-0.1,0.3-0.3,0.5-0.4,0.9l6.2,2.7c0.2-0.5,0.3-1,0.6-1.4c0.2-0.5,0.5-0.9,0.8-1.3
			c1.1-1.4,2.6-2.3,4.4-2.5c0.4,0,0.7-0.1,1.1-0.1c1.7,0,3.1,0.4,4,1.2c0.9,0.7,1.5,1.9,2,3.5l2.8-1.1l3-1.3
			C275.9,22,274.6,20.2,272.6,19z"/>
		<path class="st4" d="M339.6,82.6h-71.9V10.7h71.9V82.6z M269.5,80.8h68.3V12.5h-68.3V80.8z"/>
	</g>
	<g>
		<rect x="105.8" y="0.2" class="st4" width="0.8" height="93.4"/>
		<path class="st5" d="M225.1,8.3c0-4.3,0.3-5.9,2.2-5.9c1.9,0,2.2,1.7,2.2,5.9c0,4.3-0.3,5.9-2.2,5.9
			C225.5,14.3,225.1,12.6,225.1,8.3 M221.9,8.3c0,4.9,0.6,8.3,5.4,8.3s5.4-3.5,5.4-8.3c0-4.9-0.6-8.3-5.4-8.3S221.9,3.5,221.9,8.3
			 M220.3,5.7c0-2.3-0.3-5.7-5-5.7c-4.8,0-5.4,3.5-5.4,8.3c0,4.9,0.6,8.3,5.4,8.3c4.2,0,5.1-3,5.1-6.4h-3.2c0,3.5-0.9,4.1-2,4.1
			c-1.4,0-2.1-0.9-2.1-5.7c0-4.5,0.4-6.2,2-6.2c1.5,0,1.9,1,1.9,3.3H220.3z M207.8,0.3h-3.2v16h3.2V0.3z M191.6,0.3v16h3V5.1l4,11.2
			h3.7v-16h-3v11l-3.9-11H191.6z M189.6,5.7c0-2.3-0.3-5.7-5-5.7c-4.8,0-5.4,3.5-5.4,8.3c0,4.9,0.6,8.3,5.4,8.3c4.2,0,5.1-3,5.1-6.4
			h-3.2c0,3.5-0.9,4.1-2,4.1c-1.4,0-2.1-0.9-2.1-5.7c0-4.5,0.4-6.2,2-6.2c1.5,0,1.9,1,1.9,3.3H189.6z M168.8,0.3v16h9.2v-2.6H172
			V9.4h5.4V6.7H172V3h5.7V0.3H168.8z M157.2,0.3V3h3.5v13.4h3.2V3h3.5V0.3H157.2z M155.6,0.3h-3.2v16h3.2V0.3z M150.8,16.3v-2.6
			h-5.7V0.3h-3.2v16H150.8z M132.3,8.3c0-4.3,0.3-5.9,2.2-5.9c1.9,0,2.2,1.7,2.2,5.9c0,4.3-0.3,5.9-2.2,5.9
			C132.6,14.3,132.3,12.6,132.3,8.3 M129.1,8.3c0,4.9,0.6,8.3,5.4,8.3c4.8,0,5.4-3.5,5.4-8.3c0-4.9-0.6-8.3-5.4-8.3
			C129.7,0,129.1,3.5,129.1,8.3 M121,2.7h1.3c1.6,0,2.2,0.9,2.2,2.5c0,1.6-0.9,2.4-2.2,2.4H121V2.7z M117.8,16.3h3.2V9.9h1.7
			c3,0,5.1-1.5,5.1-4.8c0-2.4-1.1-4.8-4.4-4.8h-5.6V16.3z M199,28.5c0-4.3,0.3-5.9,2.2-5.9c1.9,0,2.2,1.7,2.2,5.9
			c0,4.3-0.3,5.9-2.2,5.9C199.3,34.4,199,32.8,199,28.5 M195.8,28.5c0,4.9,0.6,8.3,5.4,8.3c4.8,0,5.4-3.5,5.4-8.3
			c0-4.9-0.6-8.3-5.4-8.3C196.4,20.2,195.8,23.6,195.8,28.5 M183.3,20.5v16h3V25.3l4,11.2h3.7v-16h-3v11l-3.9-11H183.3z M180.9,20.5
			h-3.2v16h3.2V20.5z M165,36.5h3.2v-6.8h1.7c1.3,0,1.9,0.8,1.9,2l0.1,3.1c0,0.6,0.1,1.2,0.4,1.7h3.5c-0.6-0.4-0.7-1.3-0.7-3
			c0-3.4-0.4-4.6-2.6-4.9c1.8-0.4,2.7-1.9,2.7-4c0-2.7-1.6-4.1-4.3-4.1h-6V36.5z M168.3,22.9h1.5c1.5,0,2.2,0.7,2.2,2.2
			c0,1.7-0.9,2.4-2.4,2.4h-1.3V22.9z M155.5,28.5c0-4.3,0.3-5.9,2.2-5.9c1.9,0,2.2,1.7,2.2,5.9c0,4.3-0.3,5.9-2.2,5.9
			C155.8,34.4,155.5,32.8,155.5,28.5 M152.2,28.5c0,4.9,0.6,8.3,5.4,8.3c4.8,0,5.4-3.5,5.4-8.3c0-4.9-0.6-8.3-5.4-8.3
			C152.8,20.2,152.2,23.6,152.2,28.5 M141,20.5v2.6h3.5v13.4h3.2V23.1h3.5v-2.6H141z M134.1,20.5h-3.2v16h3.2V20.5z M121.2,22.9h1.4
			c2.5,0,2.8,1.9,2.8,5.5c0,4.3-0.4,5.8-2.7,5.8h-1.4V22.9z M118,36.5h5.1c4.3,0,5.5-2.6,5.5-8.2c0-4.7-0.8-7.8-5.3-7.8H118V36.5z"
			/>
		<path class="st4" d="M0.7,47.3c0,25.7,20.8,46.5,46.5,46.5c25.7,0,46.5-20.8,46.5-46.5c0-25.7-20.8-46.5-46.5-46.5
			C21.5,0.7,0.7,21.6,0.7,47.3 M0,47.3C0,21.2,21.2,0,47.2,0c26.1,0,47.2,21.1,47.2,47.2c0,26.1-21.2,47.2-47.2,47.2
			C21.2,94.5,0,73.4,0,47.3"/>
		<path class="st4" d="M47.5,12c0-0.5,0.4-1,1-1c0.5,0,1,0.4,1,1c0,0.5-0.4,1-1,1C47.9,12.9,47.5,12.5,47.5,12"/>
		<path class="st4" d="M50.1,12.1c0-0.5,0.4-1,1-1c0.5,0,1,0.4,1,1c0,0.5-0.4,1-1,1C50.5,13.1,50.1,12.7,50.1,12.1"/>
		<path class="st4" d="M52.7,12.5c0-0.5,0.4-1,1-1s1,0.4,1,1c0,0.5-0.4,1-1,1S52.7,13.1,52.7,12.5"/>
		<path class="st4" d="M55.3,13.1c0-0.5,0.4-1,1-1c0.5,0,1,0.4,1,1c0,0.5-0.4,1-1,1C55.7,14.1,55.3,13.6,55.3,13.1"/>
		<path class="st4" d="M57.8,13.9c0-0.5,0.4-1,1-1c0.5,0,1,0.4,1,1c0,0.5-0.4,1-1,1C58.2,14.8,57.8,14.4,57.8,13.9"/>
		<path class="st4" d="M60.2,14.8c0-0.5,0.4-1,1-1c0.5,0,1,0.4,1,1c0,0.5-0.4,1-1,1C60.7,15.8,60.2,15.3,60.2,14.8"/>
		<path class="st4" d="M62.6,15.9c0-0.5,0.4-1,1-1c0.5,0,1,0.4,1,1c0,0.5-0.4,1-1,1C63,16.9,62.6,16.5,62.6,15.9"/>
		<path class="st4" d="M64.9,17.2c0-0.5,0.4-1,1-1c0.5,0,1,0.4,1,1c0,0.5-0.4,1-1,1C65.3,18.2,64.9,17.8,64.9,17.2"/>
		<path class="st4" d="M67.1,18.7c0-0.5,0.4-1,1-1c0.5,0,1,0.4,1,1s-0.4,1-1,1C67.5,19.7,67.1,19.2,67.1,18.7"/>
		<path class="st4" d="M69.1,20.3c0-0.5,0.4-1,1-1c0.5,0,1,0.4,1,1s-0.4,1-1,1C69.6,21.3,69.1,20.9,69.1,20.3"/>
		<path class="st4" d="M71.1,22.1c0-0.5,0.4-1,1-1c0.5,0,1,0.4,1,1c0,0.5-0.4,1-1,1C71.5,23.1,71.1,22.6,71.1,22.1"/>
		<path class="st4" d="M72.9,24c0-0.5,0.4-1,1-1c0.5,0,1,0.4,1,1c0,0.5-0.4,1-1,1C73.3,25,72.9,24.5,72.9,24"/>
		<path class="st4" d="M74.5,26c0-0.5,0.4-1,1-1c0.5,0,1,0.4,1,1c0,0.5-0.4,1-1,1C75,27,74.5,26.6,74.5,26"/>
		<path class="st4" d="M76,28.2c0-0.5,0.4-1,1-1c0.5,0,1,0.4,1,1c0,0.5-0.4,1-1,1C76.5,29.2,76,28.7,76,28.2"/>
		<path class="st4" d="M77.4,30.5c0-0.5,0.4-1,1-1c0.5,0,1,0.4,1,1c0,0.5-0.4,1-1,1C77.8,31.4,77.4,31,77.4,30.5"/>
		<path class="st4" d="M78.5,32.8c0-0.5,0.4-1,1-1c0.5,0,1,0.4,1,1c0,0.5-0.4,1-1,1C79,33.8,78.5,33.4,78.5,32.8"/>
		<path class="st4" d="M79.5,35.3c0-0.5,0.4-1,1-1c0.5,0,1,0.4,1,1c0,0.5-0.4,1-1,1C80,36.2,79.5,35.8,79.5,35.3"/>
		<path class="st4" d="M80.3,37.8c0-0.5,0.4-1,1-1c0.5,0,1,0.4,1,1c0,0.5-0.4,1-1,1C80.8,38.7,80.3,38.3,80.3,37.8"/>
		<path class="st4" d="M80.9,40.3c0-0.5,0.4-1,1-1c0.5,0,1,0.4,1,1c0,0.5-0.4,1-1,1C81.4,41.3,80.9,40.8,80.9,40.3"/>
		<path class="st4" d="M81.4,42.9c0-0.5,0.4-1,1-1c0.5,0,1,0.4,1,1c0,0.5-0.4,1-1,1C81.8,43.9,81.4,43.4,81.4,42.9"/>
		<path class="st4" d="M81.6,45.5c0-0.5,0.4-1,1-1c0.5,0,1,0.4,1,1c0,0.5-0.4,1-1,1C82,46.5,81.6,46,81.6,45.5"/>
		<path class="st4" d="M81.6,48.1c0-0.5,0.4-1,1-1c0.5,0,1,0.4,1,1c0,0.5-0.4,1-1,1C82.1,49.1,81.6,48.7,81.6,48.1"/>
		<path class="st4" d="M81.5,50.8c0-0.5,0.4-1,1-1c0.5,0,1,0.4,1,1c0,0.5-0.4,1-1,1C81.9,51.7,81.5,51.3,81.5,50.8"/>
		<path class="st4" d="M81.1,53.3c0-0.5,0.4-1,1-1c0.5,0,1,0.4,1,1c0,0.5-0.4,1-1,1C81.6,54.3,81.1,53.9,81.1,53.3"/>
		<path class="st4" d="M80.6,55.9c0-0.5,0.4-1,1-1c0.5,0,1,0.4,1,1c0,0.5-0.4,1-1,1C81,56.9,80.6,56.5,80.6,55.9"/>
		<path class="st4" d="M79.9,58.4c0-0.5,0.4-1,1-1c0.5,0,1,0.4,1,1c0,0.5-0.4,1-1,1C80.3,59.4,79.9,59,79.9,58.4"/>
		<path class="st4" d="M78.9,60.9c0-0.5,0.4-1,1-1c0.5,0,1,0.4,1,1c0,0.5-0.4,1-1,1C79.4,61.9,78.9,61.4,78.9,60.9"/>
		<path class="st4" d="M76.6,65.6c0-0.5,0.4-1,1-1c0.5,0,1,0.4,1,1c0,0.5-0.4,1-1,1C77,66.6,76.6,66.1,76.6,65.6"/>
		<path class="st4" d="M75.1,67.8c0-0.5,0.4-1,1-1c0.5,0,1,0.4,1,1c0,0.5-0.4,1-1,1C75.6,68.8,75.1,68.3,75.1,67.8"/>
		<path class="st4" d="M73.7,70.3c-0.2-0.5-0.1-1.1,0.4-1.3c0.5-0.3,1.1-0.1,1.3,0.4c0.3,0.5,0.1,1.1-0.4,1.3
			C74.5,71,73.9,70.8,73.7,70.3"/>
		<path class="st4" d="M71.8,71.8c0-0.5,0.4-1,1-1c0.5,0,1,0.4,1,1c0,0.5-0.4,1-1,1C72.2,72.8,71.8,72.4,71.8,71.8"/>
		<path class="st4" d="M69.9,73.7c0-0.5,0.4-1,1-1c0.5,0,1,0.4,1,1c0,0.5-0.4,1-1,1C70.4,74.6,69.9,74.2,69.9,73.7"/>
		<path class="st4" d="M68.1,75.9c-0.3-0.4-0.3-1,0.2-1.4c0.4-0.3,1-0.3,1.4,0.2c0.3,0.4,0.3,1-0.2,1.4C69,76.4,68.4,76.3,68.1,75.9
			"/>
		<path class="st4" d="M65.8,76.9c0-0.5,0.4-1,1-1c0.5,0,1,0.4,1,1c0,0.5-0.4,1-1,1C66.2,77.8,65.8,77.4,65.8,76.9"/>
		<path class="st4" d="M63.6,78.5c-0.2-0.5,0.1-1.1,0.6-1.2c0.5-0.2,1.1,0.1,1.2,0.6c0.2,0.5-0.1,1.1-0.6,1.2
			C64.3,79.3,63.7,79,63.6,78.5"/>
		<path class="st4" d="M61.3,78.9c0.3-0.4,0.9-0.6,1.3-0.3c0.4,0.3,0.6,0.9,0.3,1.3c-0.3,0.4-0.9,0.6-1.3,0.3
			C61.2,79.9,61,79.3,61.3,78.9"/>
		<path class="st4" d="M58.9,79.9c0.3-0.4,0.9-0.6,1.3-0.3c0.4,0.3,0.6,0.9,0.3,1.3c-0.3,0.4-0.9,0.6-1.3,0.3
			C58.7,80.9,58.6,80.3,58.9,79.9"/>
		<path class="st4" d="M56.4,80.7c0.3-0.4,0.9-0.6,1.3-0.3c0.4,0.3,0.6,0.9,0.3,1.3c-0.3,0.4-0.9,0.6-1.3,0.3
			C56.3,81.8,56.1,81.2,56.4,80.7"/>
		<path class="st4" d="M38.7,12.7c0-0.5,0.4-1,1-1c0.5,0,1,0.4,1,1c0,0.5-0.4,1-1,1C39.1,13.7,38.7,13.3,38.7,12.7"/>
		<path class="st4" d="M36.1,13.4c0-0.5,0.4-1,1-1s1,0.4,1,1c0,0.5-0.4,1-1,1S36.1,13.9,36.1,13.4"/>
		<path class="st4" d="M33.6,14.2c0-0.5,0.4-1,1-1c0.5,0,1,0.4,1,1c0,0.5-0.4,1-1,1C34.1,15.2,33.6,14.8,33.6,14.2"/>
		<path class="st4" d="M31.2,15.3c0-0.5,0.4-1,1-1c0.5,0,1,0.4,1,1c0,0.5-0.4,1-1,1C31.6,16.2,31.2,15.8,31.2,15.3"/>
		<path class="st4" d="M28.9,16.5c0-0.5,0.4-1,1-1c0.5,0,1,0.4,1,1c0,0.5-0.4,1-1,1C29.3,17.4,28.9,17,28.9,16.5"/>
		<path class="st4" d="M26.6,17.8c0-0.5,0.4-1,1-1c0.5,0,1,0.4,1,1c0,0.5-0.4,1-1,1C27.1,18.8,26.6,18.4,26.6,17.8"/>
		<path class="st4" d="M24.5,19.4c0-0.5,0.4-1,1-1c0.5,0,1,0.4,1,1c0,0.5-0.4,1-1,1C24.9,20.3,24.5,19.9,24.5,19.4"/>
		<path class="st4" d="M22.5,21.1c0-0.5,0.4-1,1-1c0.5,0,1,0.4,1,1c0,0.5-0.4,1-1,1C22.9,22,22.5,21.6,22.5,21.1"/>
		<path class="st4" d="M20.6,22.9c0-0.5,0.4-1,1-1s1,0.4,1,1c0,0.5-0.4,1-1,1S20.6,23.4,20.6,22.9"/>
		<path class="st4" d="M18.9,24.9c0-0.5,0.4-1,1-1c0.5,0,1,0.4,1,1c0,0.5-0.4,1-1,1C19.3,25.8,18.9,25.4,18.9,24.9"/>
		<path class="st4" d="M17.3,26.9c0-0.5,0.4-1,1-1c0.5,0,1,0.4,1,1s-0.4,1-1,1C17.7,27.9,17.3,27.5,17.3,26.9"/>
		<path class="st4" d="M15.9,29.2c0-0.5,0.4-1,1-1c0.5,0,1,0.4,1,1c0,0.5-0.4,1-1,1C16.3,30.1,15.9,29.7,15.9,29.2"/>
		<path class="st4" d="M14.6,31.5c0-0.5,0.4-1,1-1c0.5,0,1,0.4,1,1c0,0.5-0.4,1-1,1C15,32.4,14.6,32,14.6,31.5"/>
		<path class="st4" d="M13.5,33.8c0-0.5,0.4-1,1-1c0.5,0,1,0.4,1,1c0,0.5-0.4,1-1,1C13.9,34.8,13.5,34.4,13.5,33.8"/>
		<path class="st4" d="M12.6,36.3c0-0.5,0.4-1,1-1c0.5,0,1,0.4,1,1c0,0.5-0.4,1-1,1C13,37.3,12.6,36.8,12.6,36.3"/>
		<path class="st4" d="M11.9,38.8c0-0.5,0.4-1,1-1c0.5,0,1,0.4,1,1c0,0.5-0.4,1-1,1C12.3,39.8,11.9,39.4,11.9,38.8"/>
		<path class="st4" d="M11.3,41.4c0-0.5,0.4-1,1-1c0.5,0,1,0.4,1,1c0,0.5-0.4,1-1,1C11.8,42.4,11.3,41.9,11.3,41.4"/>
		<path class="st4" d="M11,44c0-0.5,0.4-1,1-1s1,0.4,1,1s-0.4,1-1,1S11,44.5,11,44"/>
		<path class="st4" d="M10.8,46.6c0-0.5,0.4-1,1-1c0.5,0,1,0.4,1,1c0,0.5-0.4,1-1,1C11.3,47.6,10.8,47.2,10.8,46.6"/>
		<path class="st4" d="M10.9,49.2c0-0.5,0.4-1,1-1c0.5,0,1,0.4,1,1s-0.4,1-1,1C11.3,50.2,10.9,49.8,10.9,49.2"/>
		<path class="st4" d="M11.1,51.9c0-0.5,0.4-1,1-1c0.5,0,1,0.4,1,1c0,0.5-0.4,1-1,1C11.6,52.8,11.1,52.4,11.1,51.9"/>
		<path class="st4" d="M11.6,54.4c0-0.5,0.4-1,1-1c0.5,0,1,0.4,1,1s-0.4,1-1,1C12,55.4,11.6,55,11.6,54.4"/>
		<path class="st4" d="M12.2,57c0-0.5,0.4-1,1-1c0.5,0,1,0.4,1,1c0,0.5-0.4,1-1,1C12.6,58,12.2,57.5,12.2,57"/>
		<path class="st4" d="M13,59.5c0-0.5,0.4-1,1-1c0.5,0,1,0.4,1,1c0,0.5-0.4,1-1,1C13.4,60.5,13,60,13,59.5"/>
		<path class="st4" d="M15.2,64.3c0-0.5,0.4-1,1-1c0.5,0,1,0.4,1,1c0,0.5-0.4,1-1,1C15.6,65.2,15.2,64.8,15.2,64.3"/>
		<path class="st4" d="M16.5,66.5c0-0.5,0.4-1,1-1c0.5,0,1,0.4,1,1c0,0.5-0.4,1-1,1C16.9,67.5,16.5,67.1,16.5,66.5"/>
		<path class="st4" d="M18,68.7c0-0.5,0.4-1,1-1c0.5,0,1,0.4,1,1s-0.4,1-1,1C18.4,69.6,18,69.2,18,68.7"/>
		<path class="st4" d="M19.7,70.7c0-0.5,0.4-1,1-1c0.5,0,1,0.4,1,1c0,0.5-0.4,1-1,1C20.1,71.7,19.7,71.3,19.7,70.7"/>
		<path class="st4" d="M21.5,72.6c0-0.5,0.4-1,1-1c0.5,0,1,0.4,1,1c0,0.5-0.4,1-1,1C21.9,73.6,21.5,73.2,21.5,72.6"/>
		<path class="st4" d="M23.4,74.4c0-0.5,0.4-1,1-1c0.5,0,1,0.4,1,1c0,0.5-0.4,1-1,1C23.9,75.4,23.4,74.9,23.4,74.4"/>
		<path class="st4" d="M25.7,76.6c-0.3-0.4-0.2-1,0.2-1.3c0.4-0.3,1-0.2,1.3,0.2c0.3,0.4,0.2,1-0.2,1.3C26.6,77.1,26,77,25.7,76.6"
			/>
		<path class="st4" d="M27.7,77.1c0.2-0.5,0.8-0.7,1.3-0.5c0.5,0.2,0.7,0.8,0.5,1.3c-0.2,0.5-0.8,0.7-1.3,0.5
			C27.8,78.2,27.5,77.6,27.7,77.1"/>
		<path class="st4" d="M29.9,78.8c0-0.5,0.4-1,1-1c0.5,0,1,0.4,1,1c0,0.5-0.4,1-1,1C30.4,79.7,29.9,79.3,29.9,78.8"/>
		<path class="st4" d="M32.4,79.5c0.2-0.5,0.8-0.7,1.3-0.5c0.5,0.2,0.7,0.8,0.5,1.3c-0.2,0.5-0.8,0.7-1.3,0.5
			C32.4,80.6,32.2,80,32.4,79.5"/>
		<path class="st4" d="M34.8,80.5c0.2-0.5,0.8-0.7,1.3-0.5c0.5,0.2,0.7,0.8,0.5,1.3c-0.2,0.5-0.8,0.7-1.3,0.5
			C34.9,81.5,34.6,81,34.8,80.5"/>
		<path class="st4" d="M46.1,13.3c-0.1-0.5-0.5-0.9-1.2-0.6c-2.2,0.9-4.6,2.3-6,4.3c-1.8,2.3-1.4,5.6-0.7,8.3c1.1,3.5,5,6,4.5,10.1
			h0.2c1.2-1.3,1.1-3.3,0.7-5c-0.3-1.2-1.5-2.2-1.4-3.4c-1.6-2-2.8-4.7-1.5-7.2c1.3-2.3,3.5-3.4,5.8-4C46.2,15,46.4,14.2,46.1,13.3
			 M54.5,22.8c-1.6-1.6-2.9-3.3-4.6-4.9c-1.2-0.9-2.8-1.4-4.2-0.8c-2.2,0.4-3.9,2.4-4.6,4.5c-0.2,2.3,1.3,4.7,3.2,5.7
			c1.7-0.7,2.3-2.8,4.2-3.3c0.3,0.2,0.4,0.5,0.5,0.9c0.2,0.5,0.5,0.7,1.1,0.7c1.3-0.8,3.1-0.9,4.4-0.2c0.5-0.1,1.6,0.3,1.7-0.5
			c-0.9-1.3-2.5-1.6-3.7-2.4c0-0.3,0-0.6,0.2-0.8c0.1,0.1,0.2-0.1,0.3-0.1c0.3,0.1,0.5,0.5,0.6,0.8C54,22.5,54.3,23.1,54.5,22.8
			 M48.9,27c-0.2-0.9-0.1-1.8-1.1-2.1c-1,1-2.1,1.9-2.3,3.4c0.3,0.5,0,1.4,0.6,1.5C47,28.9,48.6,28.5,48.9,27 M54.1,26.1
			c-0.6-0.4-1.2-0.6-2-0.4c-0.6,0.6-1.4,0.8-2,1.1c-0.1,1.7-1.9,2.5-3,3.6c-0.9,1.6,0.3,3.7-1.5,4.7c0,0.3,0.3,0.5,0.4,0.8
			c1.4,1,3.2,1.6,5,1.1c0.3-0.1,0.8-0.4,0.7-0.8c-1.6-0.8-0.6-2.5-1.2-3.7c0.4-0.5,1.2,0.2,1.9,0c0.5-0.2,0.3-0.6,0.3-1
			c0.1-0.2,0.1-0.6,0.4-0.6l-0.6-0.4c0.2-0.5,0.5,0.1,0.8-0.2c0-0.6,0.7-0.4,1-0.6C54.2,28.5,54,27.3,54.1,26.1 M47.2,15
			c0.2,2.3,3.1,1.6,3.9,3.4l0.2,0.2l4.1,4.6c-0.1,1,1.2,1.3,1.6,2.2c-0.5,0.6-1.5,0.8-2.2,0.7c-0.7,0.9,0,1.9-0.1,3
			c0.6,1.4-1.3,0.8-1.2,2c-0.9,0.4,0.1,1.5-0.9,1.9c-0.5,0.2-1.5-0.1-1.5,0.7c0.2,0.8-0.2,1.9,0.9,2.2c0.2,0.3,0.3,0.7,0.1,1.1
			c-1.9,1.4-4.6,0.7-6.4-0.4c-0.4-0.2-0.7-0.5-1.1-0.9c-0.3-1,1-0.9,1.3-1.6v-2.7c-0.9-0.4-0.4-1.3-0.6-2c-0.3-0.2-0.1-0.4-0.3-0.7
			l-1.1-0.5c-0.4,0.2,0,0.6-0.1,0.9c0.8,2.1,1.4,5.1-0.2,7c-0.4,0.3-0.7,0.6-1.3,0.5c-0.2-0.8-0.1-1.7-0.2-2.5
			c0-0.5-0.1-0.9-0.2-1.4c-3-4.1-6.3-9.3-4.2-14.4c1.2-2.9,4.1-4,6.5-5.8c0.8-0.4,1.7-1.2,2.5-0.3L47.2,15z"/>
		<path class="st4" d="M52.6,21.5c-0.4,0.4-0.7,0.8-1.3,1c-0.4-0.4-0.1-1.2,0-1.7C51.8,20.4,52.4,20.9,52.6,21.5"/>
		<path class="st4" d="M26.9,25.3l-0.8-1.2c-0.6,0.1-0.5,0.6-0.7,1.1c1.3,1.4,1.5,3.2,2.3,4.7H28C28.1,28.2,27.4,26.8,26.9,25.3
			 M26.3,28c-0.2-1.4-1.4-2.6-2.3-3.5c0.3,2.1,0.2,4.6,1.9,6.3c0.3,0,0.6,0.4,0.9,0C27.1,29.7,26.6,28.9,26.3,28 M66.5,30.8
			c-0.1-0.3-0.4-0.3-0.7-0.5c-0.5,0.1-0.4,0.7-0.4,1.1c0.3,0.1,0.6,0.3,1,0.2L66.5,30.8z M32.8,33.7c-0.9-1.2-2.1-2.3-3.3-3
			c-0.3,1.9,1.1,3.3,2.1,4.7c0.6,0.6,1.4,0.9,2.1,1c0-0.2,0.1-0.4-0.1-0.6C33.6,35.1,33.2,34.4,32.8,33.7 M27.8,33.8
			c-0.3-1.2-1.8-0.9-2.6-1.4l-0.1,0.2c1.6,2.2,3.7,4.5,6.7,4c-0.5-2.6-2.2,1-3-1.2c0-0.4,0-0.8,0.1-1.2C28.4,34.3,28.1,34,27.8,33.8
			 M64.6,33.7c-0.3-0.6-1.2-0.2-1.4-0.9c-0.5,0.4,0.4,1.1-0.5,1.4c-0.5-0.1-0.7-1.1-1.3-0.7c-0.7,0.7,0,1.6,0,2.3
			c-0.3,1.2-1.1,0-1.5,0c-0.3,0.5-0.3,1.3-0.3,1.8l0.4,0.1c0.5,0.1,0.3-0.5,0.3-0.7c0.2-0.4,0.5,0.1,0.6,0.1
			c0.6-0.5,0.7-1.2,0.9-1.9c0.2-0.2,0.6,0.1,0.6,0.3c0.4-0.1,1-0.3,1.2-0.8c0.5,0.3,1.1-0.5,1.5-0.3c-0.1,0.4-0.6,0.6-0.8,0.7
			c0.1,0.1,0.2,0.1,0.3,0.2c-0.3,0.9-2-0.1-2.2,1.1c0.3,0.1,0.8-0.1,0.9,0.3C63.1,37,62.9,37,62.5,37c-0.3,0.2-0.9,0.4-0.9,0.9
			c0.5,0.1,0.9,0.8,1.6,0.6c0.5-0.3-0.3-0.4-0.2-0.7c0.7-1.3,1.7,0.9,2.4-0.5c0.4-0.9-1.1,0.1-0.8-0.9c0.7-0.7,1.9-0.2,2.4-1.2
			l-0.2-0.1c-1.4-0.4,0.5-1-0.1-1.7C66.1,32.7,65.3,33.6,64.6,33.7 M40.4,39.5c-1-1.9-3.1-3.6-5.2-4.1c0.2,1.2,1,2.1,1.7,3
			c0.6,0.7,1-1,1.9-0.5c0.8,0.3,0.7,1.3,0.7,1.9C39.9,39.7,40.3,39.9,40.4,39.5 M58.2,36.6c-0.1-0.5-0.7-0.1-0.6,0.2
			C57.8,36.7,58.2,37,58.2,36.6 M55.2,38.8c-0.5-0.2-0.5-0.8-0.8-1.2c-0.8,0.2-0.8,1.3-1.6,1.7l-0.6-0.4c-0.4,0.6-1,1.2-0.6,2
			c0.4,0.2,0.4-0.6,0.8-0.4c0.8,0,1.4-0.6,1.9-1.3c0.3,0.1,0.1,0.4,0.2,0.5l0.8-0.2c0.1,0.1,0,0.2,0.1,0.3L54,40.4
			c0.1,1.1-1.4,0.2-1.9,0.9l0.5,0.6l-0.2,0.2c-0.2,0.1-0.3-0.1-0.5-0.2c-0.4-0.1-1.1-0.3-1.4,0.2c0.1,0.2,0.4,0.3,0.3,0.5l-1,0.1
			l0.7,0.6c1,0.6,0.7-0.6,1.2-1c0.5-0.1,0.7,0.5,1.1,0.6c0.6-0.1,1.1,0.6,1.6,0c-0.2-0.4-0.8-0.4-0.8-1c0.7-1.1,1.6,0.4,2.4-0.2
			c0.4-0.7-0.6-1-0.8-1.5l1.1-0.8c0.2-0.3,0.3-0.9-0.1-1.1C56,37.9,55.5,38.6,55.2,38.8 M58.5,38c-0.1-0.1-0.3-0.3-0.5-0.3
			c-0.1,0.4,0.3,0.3,0.4,0.5C58.5,38.1,58.5,38,58.5,38 M35.9,39c-1.5-1.4-4-1.1-6-0.9C31.4,39.4,34,40,35.9,39 M46.1,40.9
			c-1.1-1.7-2.9-2.3-4.5-2.9c-0.1,0.7,0.8,1.1,1.3,1.7c1,0.7,1.9,1.6,3,1.8L46.1,40.9z M62.8,38.9c-0.4-0.3-1.3-0.7-1.6,0
			c0,0.4-0.1,0.5,0.1,0.8c0.4,0.3,1.1,0.5,1.5,0V38.9z M60.4,39c-0.3,0-0.4,0.3-0.4,0.5c0.2,0.2,0.2,0.9,0.6,0.7
			C60.5,39.9,60.4,39.5,60.4,39 M57.6,39.8c0-0.3-0.1-0.5-0.2-0.7L57,39.7L57.6,39.8z M59.8,40.3c-0.2-0.3-0.4-0.8-1-0.6
			c-0.4,0.2-0.4,0.7-0.5,1.1c0,0.6,0.7,0.3,1.1,0.4C59.7,40.9,60,40.7,59.8,40.3 M41.1,40.7c-1.8-0.8-4.5-0.6-6.2,0.2
			c0.2,0.2,0.5,0.2,0.7,0.3c1.7,0.4,4,1.1,5.5-0.3V40.7z M57.5,41.5c-0.2-0.3,0.1-0.8-0.3-1.2c-0.3-0.1-0.4,0.2-0.6,0.2
			c0,0.4,0.2,0.7,0.2,1.1C57.1,41.6,57.4,41.8,57.5,41.5 M50.6,41.1c0-0.3-0.3-0.4-0.3-0.7c-0.4-0.1-0.5,0.5-0.8,0.6
			c0.2,0.2,0.7-0.1,0.9,0.3L50.6,41.1z M43.1,41.6c-0.2-0.2-0.4-0.1-0.6-0.1v0.2C42.7,41.7,43,41.8,43.1,41.6 M45.9,42.7l-0.2-0.2
			c-1.9-0.1-4.1-0.3-5.6,0.7c1.5,0.3,3.3,0.5,4.9,0.2C45.3,43.2,45.8,43.1,45.9,42.7 M24.9,24.7c0.6-0.3,0.4-1.2,1.2-1.2
			c1.9,2.4,2.6,5.5,2.6,8.6c0.1,0,0.2-0.1,0.3-0.1c0.1-0.6-0.3-1.4,0.3-1.9c2.5,1.7,4.8,4.3,5.7,7l0.2,0.1c-0.2-0.7-0.6-1.7-0.5-2.6
			c2.9,1.3,5.9,3.3,7.8,6.1c0.3,0.1,0.7,0.5,1.1,0.3c-1.1-1-2.3-2.1-2.9-3.4c2.3,0.2,4.3,1.6,6.1,3.2c0.6,0,1.4-0.4,1.9,0.1
			c0.6-0.2,0.9-1.3,1.7-1.1l0.3,0.5c0.7-0.5,0.9-2.5,2-1.8c0.5-0.5,1.2-1,1.9-1.1c0.2,0.3,0.2,0.6,0.5,0.8c0.5-0.4,1.1-0.2,1.4-0.9
			c0-0.5,0.5-0.8,0.9-1.2c0.8-0.4,1.2,0.8,1.7,1.1c0.2-0.7,0.2-1.7,1-1.9c0.2,0,0.3,0.2,0.4,0.3c0.3-0.7-0.3-1.9,0.6-2.4
			c0.2-0.1,0.5-0.1,0.7-0.1c0.3,0.1,0.2,0.6,0.6,0.5c-0.2-0.5,0.3-0.7,0.5-1.1c1,0.2,1.2-0.8,1.7-1.3c-0.1-0.6,0.4-1.1,0.9-1.5
			c0.6,0,0.8-1.8,1.5-0.6c0.2,0.1,0.2-0.1,0.3-0.2c-0.5-0.6-1.1-1.2-0.8-2c0.4-0.6,1.2-0.2,1.5-0.6c-0.2-0.7-0.7-1.6-0.1-2.3
			c0.3-0.3,0.8-0.3,1.2-0.2c0.3,0.2,0.6,0.4,0.8,0.7c0.5-0.2,0.3-0.8,0.9-1c0.6,0.1,0.8,0.8,1.2,1.2c0.1,0.5-0.2,0.9-0.1,1.4
			c0.6,0.2,0.6,0.8,0.6,1.4c-0.2,0.7-1.1,0.8-1.4,1.3c0.3,0.1,0.7,0.1,0.8,0.5c0,0.1,0.1,0.3-0.1,0.3h-0.2c0.1-0.2-0.2-0.4-0.3-0.4
			c-0.3-0.1-0.8,0.2-1-0.2c0.2-1,2.6-1.3,1.3-2.3c-0.5-0.6,0.4-1.2-0.1-2c-0.2-0.2-0.4-0.6-0.7-0.6c-0.4,0.3-0.2,0.8-0.5,1.2
			c-0.7,0.2-1-1.2-1.7-1.2c-0.5-0.2-0.4,0.4-0.7,0.5c0,0.9,1.1,1.8,0.2,2.6c-0.5,0.2-1-0.7-1.4-0.1c-0.3,1.1,1.7,1.7,0.5,2.7
			c-0.4,0.1-0.5-0.9-1-0.2c0.2,0.7,0.4,1.6,1.1,2c0.3-0.2,0.2-0.5,0.1-0.7c0.6,0.2,0.7-0.6,1-1l0.1-1c0.3,0,0.1,0.5,0.3,0.6
			c0.4-0.5,0.5-1.3,0.6-1.9c0.1,0.1,0,0.3,0.2,0.4c0.4,0,0.6-0.3,0.9-0.5c0,1-1.2,1-1.2,1.9l0.4,0.3c-0.4,0.3-1,0.7-1.1,1.2l0.2,0.4
			c-0.4,0.1-0.7,0.4-1,0.7c0,0.2,0,0.3,0.2,0.4c0.7-0.1,1.4-0.3,1.9-0.9c0-0.3-0.1-0.5-0.1-0.8c0.4-0.4,1-0.3,1.5-0.6v0.2
			c-0.2,0.5-1.1,0-1.2,0.7c0.5,0.4,0,1-0.4,1.2c-0.8,0.3-1.9,0.3-2.4,1.2c0.3,0.4-0.2,0.6-0.3,0.9l-0.2,0.2c0.2,0.4,0.9,0.6,0.5,1.1
			c-0.3,0.9-2.1,0.3-1.6,1.8c-0.3,0.5-0.8,0.4-1.1,0.7L63.7,38c-0.2,0.2,0.4,1-0.3,0.9c-0.2,0.6-0.4,1.3-1.2,1.6
			c-1.6-0.1-2.2,1.5-3.8,1.4c-0.8,0.1-1.3,1.1-2.2,0.5c-0.4,0.6-0.8-0.2-1.4,0.1c0.3,0.4-0.2,1-0.5,1.3c-0.7,0.2-1.3,0-1.9-0.3
			c-0.2,0.9-1.2,0.3-1.7,0.6c-0.7-0.1-1.4-0.9-2.1-0.4c-0.4,0.6-1.3,0.3-1.8,0.2c-0.9-0.6-1.8,0.2-2.9,0.2c-1.7,0-3.6,0.1-4.8-1
			c0.1-0.2,0.6-0.2,0.6-0.6c-2.1-0.2-4.6-0.1-6-1.6c0.3-0.1,0.5-0.3,0.8-0.5c-2.3-0.2-4.6-1-6.2-2.6c1.3-0.3,2.6-0.1,3.7-0.5
			c-3.8,0.5-6.5-3-8.3-5.7c0.8-0.4,1.5,0.4,2.2,0.2c-0.1-0.5-0.9-0.8-1.1-1.4c-0.2-0.7-0.8-1.3-0.7-2.2c-0.5-0.3-0.1-0.9-0.3-1.2
			c-0.1-1.2-0.5-2.3-0.3-3.5C24,23.6,24.5,24.2,24.9,24.7"/>
		<path class="st4" d="M53.7,26.6c-0.4-0.3-1,0.1-1.4,0.3c0,0.3,0.3,0.1,0.4,0.2c0.3,0.2,0.4-0.4,0.7-0.1l-0.3,0.7
			c-0.6-0.2-1.4-0.5-1.7-0.8C52.2,26.9,53.1,25.7,53.7,26.6"/>
		<path class="st4" d="M16.3,60.3c0.1,0.5-0.2,1.4,0.6,0.6c0-0.2,0-0.4,0.1-0.6l0.8,0c0,0.2,0,0.4,0,0.6l0.2,0.2
			c0.2,0.2,0.4,0,0.6-0.2c-0.3-0.3-0.3-0.5-0.2-0.7h1.7c0,0.3,0,0.6,0.2,0.7v-0.2c0-0.1,0-0.3,0-0.4h0.6c0,0.2,0,0.5,0,0.7h0.2
			c0-0.2,0-0.5,0-0.7l1.3,0c0,0.3,0.1,0.6,0.1,0.8h0.2c0.1-0.2,0.1-0.5,0.1-0.8h0.6v0.9l0.2-0.2c-0.1-0.2-0.1-0.4-0.1-0.7h0.6l0,0.8
			l0.1-0.8h0.5c0,0.4,0,0.8,0.3,1c-0.1-0.3,0-0.6,0.2-1H27c-0.1,0.4-0.3,0.8,0.2,0.9c0.2-0.3,0.3-0.6,0.3-0.9h0.8
			c0.1,0.4,0,0.9,0.5,0.8c-0.1-0.3-0.1-0.5-0.1-0.8h1.1c-0.1,0.5-0.3,0.9,0.3,1.3c0.3,0.4,0.9-0.4,0.9,0.3c-0.5,0.4-1.1-0.1-1.6,0.1
			l-13.5-0.2c-0.1-0.5-0.1-1-0.1-1.5 M34.7,60.3c0,0.1,0,0.1,0,0.2c0.2,0,0.4-0.1,0.5-0.2h1.3c0.1,0.1,0.1,0.1,0.2,0.2
			c0.1,0.5-0.4,0.3-0.6,0.6c-0.4-0.1-1,0.2-1.3-0.2c-0.4-0.1-0.5,0.5-0.7,0c0-0.2,0-0.4,0-0.5H34.7z M38.8,60.3c0.3,0.4-0.3,1,0.5,1
			c0.4,0.1,0.8,0.2,1.2-0.1l-1-0.2c-0.1-0.2-0.2-0.5,0.1-0.6c0,0,0-0.1,0-0.1h13.3c0.2,0.2,0.3,0.5,0.4,0.7c0-0.2,0.1-0.5,0.2-0.7
			h1.1c0,0.1,0.1,0.3,0.2,0.4c0.4,0.1,0.5-0.2,0.7-0.4h1.5c0.2,0.4,0.4,0.9,0,1.3c1,0.2,2.2,0,3,0.5c-0.5,0.3-1.3,0.2-1.9,0.2
			l-8.1-0.2c-0.4-0.5-1.5,0-2-0.5c-0.3,0.2-0.8,0.3-1.2,0.1l-0.4-0.4c-0.5,1.1-1.6-0.1-2.3,0.7c-3.5-0.2-6.5,0.1-9.7-0.2
			c0.5-0.9,1.6-0.3,2.6-0.5c0.1-0.3,0.4-0.7,0.6-1.1H38.8z M58.8,60.3c0.1,0.3,0.2,0.6,0.7,0.4c0-0.1,0-0.3,0-0.4h0.4
			c0,0.3,0,0.6,0,1c-0.8-0.4-2.5,1-2.3-0.7c0.1,0,0.1-0.1,0.2-0.1c0,0,0-0.1,0-0.1L58.8,60.3z M62.4,60.3c0.2,0.2,0.1,0.8,0.5,0.4
			c0.1-0.1,0.2-0.3,0.2-0.5l0.2,0c0,0.2,0.1,0.4,0.3,0.6c0.1,0.4-0.1,0.7-0.4,0.8c0.2,0.2,0.4,0.3,0.6,0.2c0.4-0.5,0.2-1,0.1-1.6h1
			c0.1,0.3,0.2,0.7-0.1,1c-0.1,0.2,0.1,0.3,0.2,0.5c0.5,0,0.4-0.5,0.5-0.8h0.1c0.2,0.4-0.2,1-0.5,1.2c-0.6,0.7-1.4,0-2.2,0.2
			l-0.2-0.2c0.2-0.4,0.8-0.5,0.3-1c-0.2,0.5-1,0.4-1.4,0.1c0-0.2,0.1-0.5,0.3-0.5c0-0.1,0.1-0.3,0.1-0.5L62.4,60.3z M68.6,60.3
			c0,0.4,0.3,0.9,0,1.2c0.1,0.1,0.2,0.4,0.4,0.3c0.1-0.4,0.1-1,0.1-1.5h2.1l-0.1,1.4h0.2c0.1-0.5,0.2-1-0.1-1.4h1.6l-0.1,1.4h0.2
			l-0.1-1.4h0.8v1.4c0.1-0.4,0.1-1,0-1.4h1.5c0,0.1,0,0.3-0.1,0.4c0.6,0.2,0.1,0.7,0.1,1.1c0.2,0.1,0.4,0.3,0.6,0.1
			c0.2-0.4,0.2-1,0.2-1.5h0.8c0,0.6,0.1,1.2,0.4,1.7c0.3,0.2,0.3-0.3,0.4-0.4c-0.3-0.5,0-0.8,0.1-1.3H78c0,0.4-0.1,0.9,0,1.3
			c0,0.4,0,0.8-0.3,0.9L66,62.3c0.1-0.4-0.1-1.4,0.6-1.5c0.1,0.2-0.1,0.5,0.2,0.6c0.3,0.1,0.2-0.2,0.3-0.3c-0.3-0.3-0.1-0.7,0.1-1
			H68.6z M69.8,61.4L69.8,61.4v-0.8V61.4z M72.1,61.6c0-0.3,0.1-0.6-0.1-0.8l-0.1,0.8H72.1z M54.9,61.5v-0.3h-0.1L54.9,61.5z
			 M53.7,61.5l0.6-0.1l-0.4-0.2L53.7,61.5z M56.1,61.4c-0.2-0.1-0.5-0.1-0.6-0.2v0.2C55.7,61.5,55.9,61.7,56.1,61.4 M42.5,61.3
			c-0.2-0.3-0.6-0.1-0.9-0.2v0.2C41.9,61.3,42.3,61.7,42.5,61.3 M52.5,61.2c-0.1-0.2-0.6-0.1-0.4,0.2h0.2
			C52.5,61.5,52.5,61.3,52.5,61.2"/>
		<path class="st4" d="M17.8,57.7c0,0-0.1,0.1-0.1,0.1c-0.2,0.3-0.1,0.6,0.3,0.6c-0.1,0.5-0.1,1.2-0.1,1.8H17c0.1-0.9,0-1.6,0-2.5
			 M26.7,57.7c-0.3,0.1-0.7,0-0.6,0.5c0.8,0.3,0.1,1.3,0.9,1.7c0,0.1,0,0.2,0,0.4h-1.8c0.1-0.4,0.2-0.7,0-1.2
			c-0.3-0.1-0.3,0.3-0.4,0.4c0,0.2-0.1,0.5-0.1,0.8h-0.5l0,0L24.1,60l0,0.3h-0.6c0-0.2,0-0.5-0.1-0.7h-0.1v0.7h-0.6
			c0-0.2,0-0.5-0.1-0.6c-0.2,0.1-0.3,0.4-0.3,0.6h-1.3c0-0.1,0-0.2-0.1-0.3c-0.1,0-0.2,0.1-0.2,0.3l-0.6,0c0,0-0.1-0.1-0.2,0
			c0,0,0,0,0,0h-1.7c0.2-0.3,0.6-0.6,0.4-1.1c-0.3-0.4-0.1-0.7,0-1.2c0-0.1,0-0.2-0.1-0.2L26.7,57.7z M27.8,57.7
			c0.2,0.1,0.5,0.1,0.7,0.3c0.1-0.1,0.2-0.2,0.4-0.3l0.7,0c0,0,0,0,0,0l0.1,0h0.3c-0.3,0.5,0.5,1.2-0.2,1.7c0.1,0.3,0.1,0.6,0,0.8
			h-1.1c0.2-0.8,1-1.4,0.7-2.2c-0.4,0-0.2,0.4-0.6,0.6c-0.9-0.3-0.5,0.7-1,1c0.3,0.1,0.4,0.3,0.5,0.5h-0.8c0.1-0.7-0.1-1.4-0.1-2
			c-0.3-0.2-0.1-0.3,0-0.5H27.8z M31.9,57.7c0,0.1,0.1,0.1,0.4,0c0,0,0,0,0,0h0.5c0.2,0.2,0.5,0.3,0,0.5c0.4,0.9,0.7-0.7,1.1,0.1
			c0.2,0,0.4,0,0.5-0.3c-0.1-0.1-0.2-0.2-0.2-0.4h0.4c0,0.4,0.1,0.8,0.7,0.7c-0.1-0.3,0-0.5,0.1-0.7h1.3L36.4,58
			c1,0.7-0.4,1.5,0.1,2.2h-1.3c0.2-0.2,0.3-0.5,0.4-0.7c-0.2-0.3-0.4-0.7-0.9-0.7c-0.5,0.4,0,0.9,0,1.4h-0.6
			c0.1-0.6,0.5-1.3-0.3-1.6c-0.4,0.2,0.1,0.8-0.4,0.9c-0.2-0.4-0.6-0.7-1.1-0.9c-0.4,0.2-0.3,0.6-0.4,0.9c-0.5,0.1-0.5-1.2-1-0.4
			c0,0.2,0,0.5-0.2,0.6c0.1-0.6-1-1.5,0-1.8c0.3,0.1-0.1,0.7,0.4,0.6c0.4-0.2,0.3-0.6,0.3-0.9H31.9z M38.5,57.7c0,0.1,0,0.2,0,0.2
			c1.3,0.8-0.7,1.2,0.2,2.2c0.1,0,0.1,0.1,0.2,0.1h-1.4c0.2-0.4,0.3-0.9-0.3-1.3c0-0.4,0.4-0.8,0.1-1.3L38.5,57.7z M40.5,57.7
			c0,0.1-0.1,0.2-0.2,0.3c0.3,0.1,0.5-0.1,0.7-0.3h3.3l0.1,0.1l0.1-0.1h1.7c-0.1,0.1-0.1,0.2,0,0.3h0.4c0.1-0.2-0.1-0.2-0.3-0.3
			l6.7,0c0.2,0.2,0.4,0.3,0.6,0.5c0-0.2,0.1-0.3,0.1-0.5h1c0.2,0.2,0.3,0.4-0.2,0.5c1.1,0.5-0.1,1.2,0,2h-1.1
			c0.1-0.3,0.2-0.6,0.2-0.9c-0.1-0.2-0.3-0.3-0.5-0.4c-0.3,0.3-0.4,0.6-0.5,1c0.1,0.1,0.2,0.2,0.3,0.4H39.6c0.1-0.6,0.1-1.2-0.4-1.5
			c-0.3-0.3,0.1-0.5,0.2-0.5c0.4-0.1,0.2-0.3,0.1-0.5H40.5z M58.8,57.7c0.2,0.5,0.3,1.2,0.8,0.6l0-0.6h0.4c0,0,0,0,0,0
			c0,0.3-0.4,0.7,0.1,0.9c0.7,0.2,1.2-1,2-0.6l0-0.4h0.4c-0.2,0.8,0.1,1.8-0.2,2.5c0,0,0,0,0,0l-0.3,0c0-0.5,0-1-0.5-1.2
			c-0.3,0.4-0.9,0.4-1.1,0.9c-0.4-0.2,0.1-1.1-0.6-0.9c-0.2,0.4-0.2,0.8-0.2,1.2h-0.4c0.1-0.5,0.3-0.9-0.2-1.3l-0.6,1
			c0.1,0.1,0.2,0.2,0.2,0.3h-1.1c-0.1-0.4-0.2-0.7-0.4-1.1c-0.3,0-0.4,0.3-0.6,0.5c0,0.2,0.1,0.4,0.1,0.6h-1.5
			c0.1-0.2,0.2-0.5,0.3-0.7c-0.3-0.2-0.5-0.5-0.5-0.8c0.1-0.1,0.3-0.3,0.3-0.4c-0.1-0.2,0-0.4,0-0.6H58.8z M63.7,57.7
			c0.1,0.2,0.3,0.3,0.6,0.4c0.2-0.1,0.2-0.3,0.3-0.4h0.3c0.4,0.5,0.8,0.7,1.5,0.7c0,0.3,0,0.7-0.2,1.1c-0.1-0.5-0.5-0.2-0.9-0.4
			c-0.2-0.2-0.4,0.1-0.6,0.2c0.1,0.3,0.4,0.7,0.5,1l-1,0c0-0.2,0-0.4,0-0.5c-0.4-0.5,0.5-1.4-0.5-1.5c-0.1-0.1-0.3-0.3-0.3-0.5H63.7
			z M66.4,57.7c-0.2,0.2-0.3,0.3-0.3,0L66.4,57.7z M78,57.7c0,0.4-0.1,0.8-0.1,1.2c-0.1,0.2,0.3,0.7-0.2,0.8h-0.2
			C77.3,59,78,58.1,77,57.8l-0.2,0.2c0.1,0.7,0,1.5,0,2.2h-0.8c0-0.4,0-0.7-0.1-1c0.1-0.2,0.3-0.2,0.5-0.3c-0.1-0.4-0.5-0.6-0.8-0.7
			c-0.5,0.5-0.3,1.3-0.3,2.1h-1.5c0,0,0,0,0,0v0h-0.8v0l0,0h-1.6c0,0,0,0,0,0l0,0h-2.1c0-0.2,0-0.3-0.1-0.4c-0.4,0-0.4,0.2-0.4,0.4
			h-1.5c0.3-0.5,0.8-1-0.2-1.2v-0.3c0.3-0.3,0.6,0.5,0.9-0.1c0.1-0.5-0.7-0.2-0.6-0.8c0.3-0.1,0.8,0.1,0.9-0.1L78,57.7z M15.8,60.3
			c0-0.1,0-0.2,0-0.3c0.4-0.2,0.5,0,0.5,0.3H15.8z M63.1,60.3c0-0.6-0.5-1.3,0.1-1.8c0.2-0.1,0.4,0.2,0.5,0.3
			c-0.2,0.4-0.4,1-0.3,1.5H63.1z M77.6,60.3c0-0.1,0-0.2,0-0.3h0.3c0,0.1,0,0.2,0,0.3H77.6z M52.1,58.2L51.9,58v0.3
			C52,58.3,52.1,58.3,52.1,58.2 M57,58.6c0.1-0.3,0.6-0.2,0.6-0.5C57.3,57.8,57,58.4,57,58.6 M69,59.1c0-0.3,0-0.5-0.2-0.7
			c-0.1,0.3,0.1,0.5,0,0.8L69,59.1z M50.9,58.9c0-0.2,0-0.6-0.3-0.5c-0.2,0.3-0.1,0.7,0.2,0.8C50.9,59.2,50.8,59,50.9,58.9
			 M74.6,58.8c-0.1-0.1-0.1-0.1-0.2-0.1v0.2h0.1C74.6,58.9,74.6,58.8,74.6,58.8 M42.9,58.4l0.2-0.2c-0.3,0.1-0.8-0.9-1.1-0.1
			L42.9,58.4z M43.6,58.4c-0.1,0-0.1,0-0.2-0.1v0.5C43.6,58.7,43.6,58.6,43.6,58.4 M25.3,58C25,58,25,58.5,25.2,58.7
			C25.4,58.5,25.3,58.2,25.3,58 M19.5,58.1c0-0.1-0.2,0-0.3-0.1v0.3h0.1C19.3,58.3,19.6,58.3,19.5,58.1 M32.7,58.3
			c-0.1-0.1-0.3,0-0.5-0.1v0.2C32.4,58.3,32.6,58.4,32.7,58.3 M25.8,59.1c0-0.1,0.1-0.3-0.1-0.4v0.5L25.8,59.1z M19.2,59.7
			c0.5,0,0.1-0.4,0.1-0.6l0-0.1c0,0,0,0,0,0.1L19.2,59.7z M21.9,60.2l0.1-0.7h-0.2L21.9,60.2L21.9,60.2z"/>
		<path class="st4" d="M18.5,55.2c0,0.1,0,0.2,0,0.3c0.2,0.5,0.7,0.1,1,0.3c0.2-0.1,0.2-0.5,0.3-0.6l0.9,0c0,0.2,0,0.5,0.2,0.7
			c0.7,0.2,1.5,0.2,2.3,0.3c0.4-0.2,0.4-0.6,0.4-1l0.8,0c0,0.4,0.1,0.9,0.4,1.2c0.5,0.1,0.7-0.5,0.8-0.7c0,0.3,0.2,0.5,0.5,0.6
			l0.6,0.1c0,0.5-1,0-0.8,0.7c0.3,0.2,1,0,1,0.5c0,0-0.1,0-0.1,0.1h-8c-0.2-0.2-0.7-0.2-0.9,0l-0.7,0c0-0.1,0-0.3,0-0.5
			c-0.4-0.6-0.8,0.9-1.2,0c0.1-0.3-0.2-0.9,0.3-0.9c0.1-0.1,0-0.2,0.1-0.3c-0.1-0.1-0.5-0.1-0.4-0.4c0.6-0.2,1.6,0.1,1.8-0.4
			 M19.2,55.2C19.2,55.2,19.2,55.2,19.2,55.2C19.2,55.2,19.2,55.2,19.2,55.2L19.2,55.2z M25.5,55.2l0,0.2
			C25.5,55.3,25.5,55.3,25.5,55.2L25.5,55.2z M28.8,55.2c0,0.1,0,0.2,0.1,0.3c0,0.1-0.2,0-0.3,0.1l-0.1-0.4H28.8z M30.2,55.2
			c0,0.1-0.1,0.3-0.1,0.4l-0.4-0.4H30.2z M37,55.2c0.1,0,0.2,0,0.2,0l1.5,0c0.1,0.1,0.3,0.2,0.4,0.2c0.1,0,0.2-0.1,0.3-0.2l1.1,0
			l0.3,0.4c-0.7,0.4-0.2,1.5-0.4,2.1h-1c-0.1-0.1-0.1-0.3,0.2-0.4c0.1-0.7-0.1-1.3-0.6-1.6c-0.7,0.5-0.5,1.3-0.6,2h-1.3
			c0,0,0,0,0-0.1c0.3-0.1,0.6-0.4,0.7-0.7c0-0.6-0.5-1.1-0.9-1.3c-0.5,0.3-0.3,1.1-0.6,1.5l0.3,0.2c0-0.1,0.1-0.1,0.1-0.1l0.1,0.1
			l-0.3,0.4h-1.3c0.2-0.5,0.8-0.8,0.5-1.4l-0.4,0.3c-0.3-0.3,0.2-1.2-0.6-1.1c-0.3,0.2-0.2,0.8-0.6,0.8c-0.1-0.2-0.1-0.5-0.4-0.6
			c-0.3,0.1,0,0.9-0.6,0.6c-0.2-0.2,0-0.5-0.2-0.8L32.6,56l-0.4-0.5L31.9,56c-0.3-0.1-0.4-0.5-0.5-0.8c-0.2,0-0.3,0.2-0.4,0.3
			c0,0.3,0.2,0.6-0.1,0.8h-0.1c0.1-0.4-0.2-0.8-0.4-1.2H37z M42.5,55.2c0.1,0.1,0.3,0.2,0.4,0.1v-0.1c0,0,0,0,0,0h1.7
			c-0.1,0.1-0.3,0.3-0.3,0.4c0.3,0.2,0.4-0.2,0.6-0.4h1c0.2,0.2,0.3,0.4,0.5,0.4l0.4-0.4h0.8c0.2,0.1,0.4,0.3,0.5,0.4l0.5-0.4h0.9
			c0.1,0.2,0.3,0.6,0.6,0.6c0.1-0.3-0.3-0.5-0.5-0.6h2c-0.6,0.4-0.2,1.6-0.2,2.2c0.1,0,0.3,0.1,0.4-0.1c-0.1-0.4,0.2-1-0.2-1.2
			c-0.3-0.3,0-0.8,0.3-0.9l0.9,0c0,0,0,0,0,0c1.3,0.5-0.3,1.1-0.1,1.8c0,0.3,0.2,0.5,0.4,0.7h-6.7c0,0-0.1,0-0.1-0.1c0,0,0,0,0,0.1
			h-1.7l0.1-0.1c-0.1-0.2-0.2,0-0.3,0l0.1,0.1H41c0.1-0.1,0.1-0.1,0.2-0.2c1.3-0.5-0.4-1.6,0.1-2.3L42.5,55.2z M54.6,55.2
			c0.3,0.2,0.9,0.6,0.8,0l1.5,0c0,0,0,0.1-0.1,0.1l0.2,0.2c0.1,0,0.2-0.1,0.3-0.1c0-0.1,0-0.1-0.1-0.2h4.6v0.1H62v-0.1h2.8
			c0,0.1,0.1,0.1,0.1,0.2l-0.8,0.8c-0.2-0.1,0-0.5-0.4-0.6c0,0.6-0.5,0.7-0.5,1.3c-0.2,0.1-0.3-0.1-0.3-0.2c-0.1-0.4,0.5-0.7-0.1-1
			c-0.3,0.2-0.4,0.9-0.6,1.1c-0.3-0.2,0.3-0.9-0.3-0.9c-0.3,0.1,0,0.7-0.5,0.5c-0.1-0.1-0.2-0.3-0.3-0.3l-0.5,1.1
			c-0.4-0.3,0.2-0.7-0.2-1c-0.2,0.1-0.5,0.3-0.5,0.6l0.1,0.1L59.8,57c0-0.5-0.3-0.9-0.6-1.2c-0.6,0.3-0.1,1.3-0.7,1.6
			c0.2,0,0.3,0.1,0.3,0.3l-3.2,0c0.1-0.4,0.3-0.7,0.2-1.2c-0.2-0.2-0.3-0.6-0.6-0.5c-0.2,0.3-0.5,0.3-0.5,0.7
			c-0.3,0.3-0.1,0.7,0.1,0.9h-1c0.1-0.7,0.2-1.5-0.3-2.1c0.2-0.2,0.3-0.4,0.6-0.4c-0.1,0-0.1,0-0.2,0L54.6,55.2z M66.5,55.2
			c-0.1,0.2-0.4,0.1-0.6,0.1c-0.3,0.2-0.1,0.7-0.5,0.7c0.1-0.3,0-0.6,0-0.8L66.5,55.2z M66.9,55.2c0,0.1,0,0.1,0,0.2
			c-0.1,0-0.2-0.1-0.3-0.2H66.9z M69.4,55.2c-0.2,0.4-0.2,1.2,0,1.6c0.1,0,0.1-0.1,0.2-0.1v-1.5h1.5c0,0,0,0,0,0
			c-0.1,0.1-0.3,0.3-0.4,0c-0.1,0.2-0.2,1.1,0.2,1.4c0.6,0.1,1.4,0.3,1.9-0.2c0.2-0.4,0.2-0.8,0.1-1.2h1.5c0,0.4-0.1,0.9,0.2,1.2
			c1,0.3,0.7-0.8,1.1-1c-0.1-0.1-0.3-0.1-0.3-0.3h1.1c0,0.2,0,0.4,0,0.5c-0.1,0.3,0.1,0.5,0.3,0.7c0.3,0,0.6-0.2,1-0.1
			c0.3,0.4,0.4,0.9,0.3,1.4l-9.9,0c0,0,0-0.1,0.1-0.1c-0.1-0.6-0.7-0.2-1.1-0.2c-0.3-0.1-0.5,0.2-0.7,0.4h-0.3c0-0.1,0-0.2,0-0.4
			c0.6-0.2,1.4-0.6,2-0.5c0.6-0.5,0.6-1.1,0.6-1.6H69.4z M74.9,55.2c0,0.2-0.1,0.3-0.2,0.4l-0.2-0.1c0-0.1,0-0.2,0-0.3L74.9,55.2z
			 M27.5,57.7c0.1-0.1,0.2-0.2,0.2-0.3c0,0.2,0.1,0.2,0.2,0.3H27.5z M28.9,57.7c0.3-0.2,0.7-0.4,0.6-0.8c0.3,0.1,0.2,0.3,0.1,0.6
			c0,0,0,0.1,0,0.2H28.9z M29.8,57.7l0.4-0.1c0,0-0.1,0.1-0.1,0.1H29.8z M31.6,57.7c-0.1-0.2-0.1-0.5,0.2-0.6c0.1,0.1,0,0.4,0.1,0.6
			L31.6,57.7z M32.3,57.7c0.1-0.2-0.1-0.5,0.3-0.5c-0.1,0.2,0,0.4,0.2,0.5H32.3z M34.1,57.7C34,57.5,34,57.1,34.3,57l0.1-0.1
			c0.2,0.2,0.2,0.6,0.2,0.9H34.1z M59.6,57.7l0-0.3c0.2-0.1,0.3,0.2,0.4,0.3L59.6,57.7z M62.3,57.7l0-0.2c0.2-0.1,0.2,0.1,0.3,0.1
			c0,0,0,0,0,0.1H62.3z M63.3,57.7C63.3,57.7,63.3,57.7,63.3,57.7c0.1-0.2,0.2-0.1,0.3-0.1c0,0,0,0.1,0.1,0.1H63.3z M64.5,57.7
			c0-0.1,0.1-0.1,0.2-0.1c0,0,0,0,0,0.1L64.5,57.7z M57.6,57.4c0.1-0.5-0.1-1.2-0.5-1.4c-0.4,0.3-1,0.7-0.7,1.3
			C56.7,58.2,57.2,57.1,57.6,57.4 M43.7,56.5v-0.2h-0.2C43.3,56.4,43.6,56.4,43.7,56.5 M50.7,56.5h0.1v-0.2h-0.1V56.5z M43.7,56.9
			c0-0.3-0.3,0-0.4,0H43.7z M43.1,56.8c-0.4-0.3,0.1-0.9-0.2-1.2c-0.3,0.5-0.5,1.2-0.3,1.9C43.1,57.5,43,57,43.1,56.8 M44.3,57
			c0-0.1,0-0.2-0.1-0.2v0.3L44.3,57z"/>
		<path class="st4" d="M18.4,52.7c0.4,0.2,0.6,0.7,0.9,0.8c0,0.6,0.1,1.2-0.1,1.7l0,0c-0.6-0.5,0.3-1.3-0.6-1.7
			c-0.5,0.5-0.1,1.1-0.1,1.7h-1c0.1-0.2,0-0.4,0-0.7c-0.1-0.6,0-1.3,0-1.8 M25.6,52.7l-0.1,2.5h-0.1c-0.2-0.7,0-1.7-0.2-2.5H25.6z
			 M27,52.7c-0.2,0.2-0.2,0.5-0.2,0.8c0.7-0.3,1.2,0.1,1.9,0.2l0.4,0.1c0.1,0.6-0.4,0.9-0.3,1.4l-0.3,0l-0.2-0.5l-0.4,0.1l-0.2-0.4
			c-0.1,0.1-0.1,0.2-0.2,0.3c-0.4,0.1-0.2-0.5-0.5-0.5c-0.4,0.1,0.1,0.7-0.4,0.6c-0.3-0.7,0.4-1.5-0.1-2c0-0.1,0-0.1,0-0.2H27z
			 M31.3,52.7c0.5,0.2,1.1,0.4,1.6,0.5c1.4,0.1,2.3,0.9,3.8,0.6c0.1-0.1,0-0.7,0.5-0.6c0.2,0.1,0.2,0.4,0.3,0.6l3.2,0.1
			c0.1-0.2,0-0.8,0.5-0.7c0.2,0.2,0.3,0.4,0.4,0.7c1.2,0.5,0.9-0.9,1.8-1c-0.1-0.1-0.1-0.1-0.1-0.2h0.4l0,0.1l0.1-0.1h0.8
			c-0.1,0-0.1,0-0.2,0l0.2,0.4c-0.1,0.6-0.8,0.2-1.1,0.4v0.2c2.6,0.3,4.9,0.2,7.7,0.1c-0.2-0.6-1.1-0.1-1.4-0.7
			c-0.3-0.1-0.1-0.3,0-0.5h0.1l0.3,0.2c0.1-0.1,0.1-0.1,0.1-0.2h0.6c0,0-0.1,0.1-0.1,0.1c0.3,0.6,1.5,0.3,1.1,1.2
			c0.5-0.1,1.5,0.3,1.5-0.6c0.2,0,0.2,0.1,0.3,0.2c0,0.6,0.7,0.4,1.2,0.5c0.1-0.2,0.3-0.6,0.6-0.6c0.4,0,0.1,0.5,0.3,0.6
			c0.5-0.1,1.6,0.4,1.4-0.5c0.5-0.2,0.4,0.4,0.6,0.5c0.5,0.1,1.3,0.2,1.2-0.5c0.2,0,0.3,0,0.4,0.1c0.1,0.3-0.2,0.4-0.2,0.6
			c0.6-0.1,1-0.7,1.6-0.5c0.4-0.7,1.1-0.1,1.7-0.3c0.3-0.3,0.7-0.5,1-0.7H68c-0.1,0-0.1,0.1-0.1,0.1l-0.1,2.3
			c-0.2,0.1-0.7-0.2-0.8,0.1h-0.3c0,0,0,0-0.1-0.1c0,0,0,0,0,0.1h-1.2c-0.1-0.3-0.2-0.5-0.4-0.7c-0.3,0.2-0.1,0.5,0,0.7l-2.8,0v-0.1
			c0,0-0.1-0.1-0.2-0.1v0.1h-4.6c-0.1-0.1-0.2-0.1-0.3,0h-1.5c0,0,0,0,0-0.1h-0.9c0,0,0.1,0,0.1,0l-0.9,0c-0.4-0.1-1-0.3-1,0l-0.9,0
			c0.1,0,0.1-0.1,0.2-0.1c0,0-0.1-0.1-0.1-0.1c-0.1,0-0.2,0.1-0.3,0.1l-2,0c-0.1,0-0.1-0.1-0.2-0.1c0,0,0,0.1,0,0.1h-0.9l0.1-0.1
			l-0.2-0.2c-1.2,0.2-2.9-0.4-3.7,0.3h-1.7c-0.2-0.2-0.3-0.4-0.6-0.3c0,0.1,0.1,0.2,0.2,0.3h-1.2c0.1-0.1,0.2-0.2,0.4-0.3h-1.3
			l0.2,0.3h-1.1c0.1-0.1,0.1-0.2,0.1-0.3c-0.3,0-0.7,0.1-1-0.1c-0.1,0.1,0,0.3,0.2,0.4h-1.5c0.1,0,0.3-0.1,0.3-0.3h-0.9
			c0.1,0.2,0.2,0.3,0.3,0.3l-6.5,0c-0.1-0.1-0.1-0.3-0.1-0.4c-0.1,0.1-0.2,0.2-0.2,0.4h-0.5l-0.5-0.5c0.2-0.3,0.7-0.7,0.7-1.2
			c-0.2-0.4-0.5-0.1-0.7-0.1c-0.3-0.4-0.7-0.6-1.1-0.8H31.3z M36.5,52.7c0,0.1-0.1,0.2-0.1,0.4c-0.2,0-0.4-0.1-0.5-0.3
			c0,0,0-0.1,0-0.1H36.5z M38.5,52.7c0,0.1-0.1,0.2-0.1,0.3c-0.3,0.1-0.4-0.1-0.5-0.3H38.5z M40.5,52.7c0,0.1-0.2,0.2-0.4,0.3
			c-0.1-0.1-0.2-0.2-0.2-0.3H40.5z M42.5,52.7C42.5,52.7,42.5,52.7,42.5,52.7c0,0.3-0.3,0.3-0.5,0.3c0-0.1-0.1-0.2-0.1-0.3H42.5z
			 M49,52.7c0.2,0.2,0.5,0.4,0.1,0.6c-0.4,0.3-0.5-0.2-0.5-0.5c-0.1,0-0.2-0.1-0.3-0.1H49z M51,52.7C51,52.7,51,52.7,51,52.7
			C51,52.7,51,52.7,51,52.7L51,52.7z M52.6,52.7c-0.1,0.2-0.3,0.4-0.5,0.5l-0.2-0.1l-0.1-0.4H52.6z M54.6,52.7
			c-0.1,0.2-0.2,0.4-0.4,0.5c-0.3-0.1-0.3-0.3-0.2-0.5H54.6z M56.9,52.7c0,0.1-0.1,0.2-0.2,0.3c-0.8,0.6-0.9,0.3-0.9-0.3H56.9z
			 M58.5,52.7c0,0.2,0,0.5-0.2,0.6c-0.2,0.1-0.5,0.3-0.6,0c0.1-0.2,0.1-0.4,0.1-0.6H58.5z M61.4,52.7c-0.2,0.1-0.3,0.1-0.4,0H61.4z
			 M76.6,52.7c-0.4,0.7-0.3,1.6-0.3,2.5h-1.1c0,0,0,0,0-0.1c0.1-0.2,0.3-0.2,0.5-0.2v-0.2c-0.1,0.1-0.4,0.1-0.5-0.1l0.5-0.4
			c-0.8-0.4-0.8,0.3-1,0.9h-0.4c0-0.9,0.7-1.5,1.4-2c0.1-0.8-0.7,0.4-0.9-0.4l-5.7-0.1c0,0.2-0.3,0.3-0.1,0.5l0.8-0.1
			c0.8,0.1-0.2,0.8,0.5,1.1l-0.8,0.6h1.2V54c0.2-0.1,0.3-0.4,0.6-0.3c0.9,0.4-0.4,0.9-0.3,1.5l-1.5,0v-0.1h-0.2c0,0,0,0,0,0.1
			l-0.7,0c-0.1-0.8-0.4-1.6-0.2-2.4c0,0-0.1-0.1-0.1-0.1H76.6z M19.8,55.2c0.1-0.1,0.1-0.1,0.3-0.1c0.1,0,0.3,0.1,0.3-0.1
			c-0.1-0.4-1.1-0.3-0.7-0.9c0.3-0.2,0.6-0.3,0.9-0.2c0.3,0.4,0.1,0.8,0,1.2L19.8,55.2z M23.5,55.2c0-0.6-0.2-1.3,0.8-0.9
			c0,0.3,0,0.6,0,0.9L23.5,55.2z M44.9,55.2c0-0.1,0.1-0.1,0.2-0.1c0.3-0.3,0.6-0.1,0.8,0.1H44.9z M46.7,55.2L46.7,55.2
			c0.3-0.3,0.6-0.2,0.8,0H46.7z M72.8,55.2c-0.1-0.4-0.2-0.8-0.2-1.3c0.4-0.3,0.7-1.2,1.5-0.8c0,0.5,0.5,1.1-0.1,1.5
			c0.3,0.1,0.4,0.3,0.4,0.5L72.8,55.2z M67.3,53.6c-0.2-0.1-0.5,0-0.8-0.1c0.2,0.1,0.3,0.5,0.6,0.4C67.3,53.8,67.4,53.8,67.3,53.6
			 M66.3,53.9c-0.1-0.2-0.3-0.2-0.4-0.3c-0.1,0.3-0.6,0.2-0.5,0.6C65.7,54.1,66,53.9,66.3,53.9 M73.5,54.6c0-0.2,0.1-0.4-0.1-0.5
			l-0.3,0.3l0.2,0.3C73.4,54.7,73.4,54.7,73.5,54.6 M63.9,54.6c0-0.2-0.2-0.2-0.4-0.2v0.2c0,0.2,0.3,0.3,0.4,0.2V54.6z M62.9,54.8
			c0-0.2-0.2-0.5-0.5-0.4v0.3c0.2,0.1,0.2,0.5,0.5,0.5V54.8z M30.9,53.9c-0.1-0.1-0.1-0.3-0.3-0.3c-0.2,0.3-0.7,0.8-0.3,1.2
			C30.4,54.4,30.9,54.2,30.9,53.9 M31.8,53.9c-0.2,0-0.3,0-0.4,0.2c-0.2,0.2-0.4,0.5-0.2,0.7C31.5,54.6,32,54.5,31.8,53.9
			 M32.6,54.3c-0.4-0.1-0.4,0.2-0.3,0.5c0,0.1-0.1,0.1,0,0.2c0,0,0-0.1,0-0.2C32.4,54.6,32.8,54.6,32.6,54.3 M33.4,54.8
			c0-0.1,0.1-0.3-0.1-0.3c-0.1,0.1-0.4,0.3-0.3,0.6C33.2,55,33.3,54.8,33.4,54.8 M34,54.9L34,54.9l-0.1,0.2C34,55.1,34,55,34,54.9"
			/>
		<path class="st4" d="M18.5,50.2c-0.1,0.1-0.2,0.3-0.3,0.3c0,0.3-0.1,0.6,0.1,0.9c0.5,0.1,0.4-0.6,0.8-0.7c0-0.2-0.1-0.3-0.1-0.5
			l0.5,0c0,0.4,0.1,0.9,0.2,1.2c2.4,0,4.6-0.1,7,0.1V51c0.3,0,0.6,0.2,0.9,0.5c1,0.1,1.8,0.9,2.7,0.6c0.3,0.3,0.7,0.5,1.1,0.6h-3.2
			c-0.3-0.1-0.6-0.1-1,0c0,0,0,0,0,0h-0.6c0-0.3,0-0.6-0.3-0.6c-0.2,0-0.5,0-0.5,0.2l0,0.4h-0.3c-0.1-0.2-0.1-0.4-0.3-0.6
			c-2.2-0.2-4.7,0-6.8-0.2c-0.2,0.1-0.1,0.4-0.2,0.6c0.1,0,0.3,0.1,0.4,0.1h-0.9c0-0.5-0.1-0.9-0.6-1.3c0.4-0.3,0.6-0.7,0.7-1.2
			 M26.4,50.2C26.4,50.2,26.3,50.2,26.4,50.2c-0.1,0-0.1,0-0.2,0L26.4,50.2z M28.1,50.2c0,0.2-0.1,0.3-0.1,0.5
			c-0.2-0.1-0.3-0.3-0.3-0.5H28.1z M28.9,50.2c0,0.3,0,0.6-0.3,0.7c-0.1-0.2-0.1-0.4-0.2-0.7H28.9z M39.3,50.2c-0.1,0-0.3,0-0.3,0.2
			c0,0.2,0.2,0.1,0.3,0.1c0.1-0.1,0.2-0.2,0.3-0.3l1.5,0c-0.1,0-0.2,0.1-0.3,0.2l0.1,0.1c0.4-0.1,1,0.1,1.2-0.3l0.6,0
			c0.1,0.2,0.2,0.4,0.6,0.3c0.1-0.1-0.1-0.2-0.2-0.3l1,0c-0.1,0.1-0.2,0.2-0.1,0.3c0.3,0.1,0.9,0.2,0.9-0.3c0,0,0,0,0,0l0.7,0
			c0,0-0.1,0.1-0.1,0.2c0.1,0.1,0.2,0.1,0.3,0.1c0.1-0.1,0.2-0.2,0.2-0.3l1.3,0v0.1l0.1-0.1c0,0,0,0,0,0l1.1,0
			c0.2,0.1,0.3,0.4,0.6,0.3c0-0.1-0.1-0.2-0.1-0.3l0.9,0c0,0,0,0.1,0,0.1l0.3,0.4c0.2-0.1,0.6,0.1,0.6-0.2c-0.1-0.1-0.2-0.2-0.4-0.3
			l1.2,0c-0.1,0.1-0.2,0.3-0.1,0.4c0.3,0,0.3-0.3,0.3-0.4h0.8c0.1,0.1,0.3,0.3,0.3,0.4c0.3,0.1,0.7-0.1,1-0.4H55
			c0,0,0.1,0.1,0.1,0.1c0,0,0-0.1,0-0.1l1.2,0c0.1,0,0.2,0,0.3,0c0,0,0.1,0,0.1,0H58c0.2,0,0.4,0,0.7,0l0.8,0c0,0,0,0.1,0,0.1
			c-0.1,0.2-0.4,0.2-0.6,0.3c1.8,0.1,3.5,0.1,5.5,0.1c0.2,0.1,0.5,0.3,0.5,0.6c-0.1,0.3-0.5,0-0.5,0.2c0.3,0,0.5,0.3,0.6,0.5
			c-0.4,0.4-1-0.1-1.4-0.2c-0.1-0.7-1.1-0.3-1.6-0.4c0.7,0.5-0.3,1-0.4,1.3c0,0,0,0-0.1,0h-0.4c-0.2-0.2-0.2-0.6-0.2-0.7
			c0.1,0.2-0.1,0.3-0.2,0.4c-0.1,0-0.2,0-0.2-0.1c0-0.4-0.2-1-0.6-0.8C59.6,52,59,52,58.6,52.2c-0.1,0.1-0.1,0.3-0.1,0.5h-0.7
			c0-0.4-0.3-0.8-0.4-1.2c-0.3,0.1-0.5,0.4-0.7,0.6c0.2,0.2,0.2,0.4,0.2,0.6h-1.1c0-0.5,0-1.2-0.4-1.4c-0.2-0.1-0.2,0.2-0.3,0.2
			c-0.3,0.4-0.4,0.8-0.6,1.1h-0.7c0-0.1,0-0.3,0-0.4c-0.4-0.2-0.1-1.2-0.8-1c-0.1,0.5-0.2,1-0.5,1.4h-0.7l-0.2-1.4
			c-0.2-0.1-0.3,0.1-0.4,0.2c-0.3,0.4,0.3,1-0.2,1.3h-0.1c-0.1-0.1-0.2-0.1-0.3,0h-0.6c0.1-0.3-0.3-0.6-0.4-0.8
			c-0.1,0.5-0.6,0.3-0.9,0.6c0,0.1,0.1,0.1,0.2,0.2h-0.8c-0.5-0.2,0.3-0.7-0.1-1.1l-0.7,0.6c-0.7,0.1-0.7-0.7-1.2-0.8
			c-0.1,0.3,0.2,0.6,0.3,0.9c-0.2,0.1-0.3,0.3-0.5,0.2c-0.1-0.1-0.1-0.2-0.1-0.2c-0.3,0.3-1-0.2-1.3-0.4V52c0.2,0.2,0.1,0.6-0.1,0.7
			h-0.8l0,0c0-0.1,0-0.2-0.1-0.3l-0.1,0.3h-0.4c-0.1-0.4,0.2-0.8,0-1.3c-0.1-0.3-0.4-0.4-0.6-0.3c0.6,0.6-0.4,1-0.1,1.6H42
			c-0.2-0.5-0.6-0.9-0.5-1.4c-0.2-0.3-0.5-0.1-0.8-0.2l0.2,0.4c-0.5,0.2-0.2,0.8-0.3,1.2h-0.6c-0.1-0.2-0.1-0.5-0.1-0.8
			c-0.6-0.1-0.3-1-1.1-0.9v0.5c-0.6,0.3-0.2,0.8-0.3,1.2h-0.7c-0.1-0.2-0.1-0.4-0.3-0.5c0.5-0.4-0.5-0.7-0.5-1.1
			c-0.4,0.4-0.4,1-0.5,1.5h-0.6c0.2-1-0.9-1-1.3-1.6c-0.7-0.4-0.2,0.7-0.9,0.5c-0.5,0-0.1-0.5-0.3-0.7c-0.1,0-0.3-0.1-0.3,0.1
			l0.2,0.2c0.3,0.4-0.1,0.7-0.3,1.1c-0.5,0.1-0.4-0.5-0.6-0.8c0.2-0.2,0.3-0.3,0.4-0.5c-0.7,0.2-1.9-0.5-2,0.6c-0.4,0-0.8,0.4-1.2,0
			l0.7-0.6c-0.2-0.1-0.6,0.1-0.7-0.2c0.1-0.2,0.3-0.2,0.5-0.3c2,0.1,3.8-0.1,5.7,0.1c-0.2,0-0.4-0.1-0.5-0.2L39.3,50.2z M65.8,50.2
			c0.1,0.3,0.1,0.6-0.1,0.8c-0.4-0.1-0.4-0.5-0.4-0.8H65.8z M66.5,50.2c0,0.4,0,0.8-0.2,1.1C66,51.1,66,50.6,66,50.2H66.5z
			 M67.3,50.2c0,0.2,0,0.4,0,0.7c0,0.2-0.2,0.3-0.4,0.2c-0.1-0.2-0.1-0.3,0-0.5c0-0.1,0.1-0.3,0.1-0.4L67.3,50.2z M68.6,50.2
			c-0.3,0.2-0.2,0.8-0.7,0.7c0.1-0.2,0-0.5,0-0.7L68.6,50.2z M71.1,50.2c0.1,0.6-0.2,1.4,0.3,1.9c0.8,0.2,1.4-0.2,1.7-0.8
			c0-0.4,0-0.7,0-1.1h1.4c0,0.5-0.1,1.1,0.1,1.6c0.7-0.9,0.6,0.9,1.5,0.5V52c-0.8-0.5-0.6-1.2-0.4-1.8h0.6c0,0.5,0.1,1,0,1.5
			l0.7,0.6c-0.2,0.1-0.3,0.3-0.4,0.5h-8.2c-0.2-0.1-0.4-0.1-0.5,0h-4.5c1.2-0.4,2.7-0.1,3.9-1c0.8,0.7,2.6,0.3,3.8,0.3v-0.1L70,51.8
			c-0.3,0.2-0.3-0.4-0.6-0.1c-0.2,0.2-0.3,0.1-0.5-0.1c0.1-0.4,0.2-1,0.2-1.5H71.1z M49.6,52.7C49.6,52.7,49.6,52.7,49.6,52.7
			L49.6,52.7L49.6,52.7z M57.4,50.6c-0.1-0.1-0.4-0.2-0.4,0.1C57.1,50.6,57.4,50.7,57.4,50.6 M73.9,52c-0.3-0.2-0.8-0.2-0.8,0.1
			L73.9,52z M37.1,50.4h0.3v-0.2h-0.3V50.4z"/>
		<path class="st4" d="M17.7,50.2c0.2-1-0.1-2.3-0.2-3.2c0-0.2,0.2-0.3,0.1-0.5c-0.1-0.2-0.5-0.4-0.5-0.7l0.6-0.3l5.5-7.7l0.1-0.6
			c0.3,0.3,0.3,1.1,1,1.2c0.2,0.2,0.4-0.1,0.6-0.2c0.3,0.2,0.1,0.6,0.2,0.9c1.3,1.8,1.9,4,3.6,5.4c0,0.5,0,1,0.2,1.2
			c1.3-1.3,2-2.9,3.1-4.3c0.1-0.2,0-0.4,0.2-0.6c0.1,0.4,0.3,0.9,0.8,1.2l0.4-0.2c0.1,1.1,0.9,1.9,1,3c0.2,0.4,0.3,0.9,0.7,1.3h0.2
			c0,0.3,0,0.5,0.2,0.7l0.3-0.3c0.1,0.4-0.3,1.1,0.5,1.2c2.9-0.1,5.6,0.4,8.5,0.1c0.2-0.2,0-0.8,0.4-0.6c0.1,0.2,0.2,0.4,0.4,0.6
			c0.5,0,1.1-0.3,1.3-0.9c0.5-0.1,0.2,0.7,0.8,0.8c0.5,0.4,0.9,0.1,1.1-0.4l0.6,0.7c3.1-0.2,5.6,0.3,8.5,0.1c1-0.4-0.7-1.5,0.6-1.2
			c0.9-1.3,1.4-2.8,2.1-4.2c0.5-0.1,1-0.7,1.4-1c0.8,1.6,2,3.1,3,4.6c0.5,0,0.3-0.7,0.5-1.1c1.6-1,1.8-2.8,2.9-4.1
			c0.3-0.7,0.7-1.3,0.9-2c0.5,0.5,0.8-0.2,1.2-0.3c0.5-0.2,0.2-0.6,0.5-0.9c0.4,0.3-0.1,1.1,0.5,1.4c1,1.9,2.5,3.7,3.5,5.7
			c0.7,0.5,0.9,1.6,1.8,1.7c0.1,0.4-0.9,0.7-0.2,1.1c-0.4,0.7-0.4,1.5-0.4,2.3l-0.6,0c0.1-0.5,0.3-1.1-0.3-1.5
			c-0.3-0.5,0.2-0.8,0.6-0.8c-2-0.6-4.5-0.1-6.7-0.4c-0.3,0.2-0.2,0.5-0.1,0.7c0.2,0,0.3-0.4,0.5-0.2c0.1,0.1,0.2,0.1,0.2,0.2h0.2
			c0.3,0.5,0.8,0.1,1.1,0.4c0,0.2-0.1,0.4-0.3,0.5L71,49c-0.4,0.1-0.3,0.6-0.4,0.9l0.3-0.1c0.1,0.1,0.1,0.2,0.1,0.4h-1.9
			c0-0.4,0-0.8-0.2-1.1h-0.1c0,0.4-0.1,0.7-0.1,1.1c-0.1,0-0.1,0-0.2,0.1l-0.7,0c-0.1-0.5-0.3-1-0.3-1.6c-0.6,0.4-0.5,1-0.4,1.6
			h-0.3c0-0.3-0.1-0.6-0.4-0.8c0,0.3,0,0.5,0,0.8H66c0-0.2,0-0.5-0.1-0.7c-0.3,0.1-0.2,0.4-0.1,0.7l-0.5,0c0-0.1,0-0.3-0.1-0.4
			c-0.1-0.4-0.6-0.6-0.9-0.7c0,0.2,0,0.4,0.1,0.5c-0.4,1.1-0.9-0.3-1.6-0.2c-0.2-0.5,0.2-0.8,0.4-1.1c-0.2-0.1-0.5-0.1-0.7-0.1
			c-0.3,0.2-0.3,0.6-0.3,1c-0.3,0.2-0.5,1.1-1,0.7c0.2-0.5-0.3-1-0.2-1.6c-0.4,0.3-0.7-0.2-1.2-0.2c-0.4,0.1,0.1,0.4-0.2,0.6
			l-0.5-0.2c-0.1,0.4,0.1,0.8-0.2,1.1c-0.4-0.2-0.5-0.7-0.8-1.1l-7.3-0.1c0,0.3-0.4,1,0.1,1.3c0.1,0.1,0.3-0.1,0.5-0.1
			c0.2,0.1,0.2,0.2,0.1,0.3l-1.2,0c-0.2-0.2-0.4-0.2-0.6,0l-0.9,0c-0.3-0.5-0.8-0.8-1.2-1.2c-0.3,0.6,1,0.3,0.5,1.1
			c0.1,0,0.1,0,0.1,0.1h-1.1c0-0.2,0.1-0.5-0.1-0.6v0.6h-1.3C46,50,46,49.9,46,49.7c-0.1,0.1-0.4,0.3-0.5,0.5l-0.7,0
			c-0.4-0.7-1.2-0.8-1.2-1.7l-7.1-0.1c-0.6,0.3-0.8,0.9-0.8,1.5c1.7-0.2,2.3,0.3,3.8,0c0.1,0.2,0,0.3-0.1,0.3l-4.2,0
			c-0.4-0.4,0.5-1.3,0.1-1.9h-0.1c-0.2,0.2-0.4,0.4-0.6,0.2l0.1-0.3c-0.3-0.5-0.8,0.1-1.2,0c-0.2,0.4,0.1,0.7,0.1,1.1
			c-0.2,0.2-0.3,0.6-0.7,0.4c-0.1,0-0.3-0.1-0.2-0.3c-0.6-0.4-0.4-1-0.3-1.5h-1.2c0,0.3,0.1,0.3,0.3,0.5c-0.1,0.4-0.6,0.9-1.1,1.1
			c-0.4-0.2-0.3-0.6-0.4-0.9c-0.4,0.2-0.7,0.6-1,1.1c0,0.1,0,0.3,0,0.5l-0.4,0c0-0.5,0-1,0.1-1.4c0-0.2,0.4-0.3,0.2-0.5
			c-0.5,0.4-0.6,1.2-0.7,1.9l-0.3,0c0-0.3,0.1-0.6-0.1-0.8c0-0.2,0.3-0.5,0-0.7c-0.3,0.2-0.1,0.7-0.5,0.7c-0.3-0.4,0-1.2-0.3-1.6
			h-0.3v0.7c-0.6,0.5,0,1.1-0.3,1.6l-0.2,0c0,0-0.1,0-0.1-0.1c0.1-0.5-0.2-0.4-0.6-0.5c-0.1-0.9,0.2-1.9-0.4-2.6
			c-2-0.3-4.5,0-6.6-0.2c-0.8,0.6,0.7,0.4,0.8,1.1c0.1,0.7,0.1,1.5,0.1,2.4l-0.5,0c0-0.9,0.6-1.8-0.5-2.2l-0.3,0.8
			c0.1,0.2,0.4,0.2,0.5,0.4c0,0.3,0,0.7-0.1,1 M39.6,50.2c0.5-0.3,1.2-0.2,1.7-0.6l0.2,0.2c0,0.3-0.2,0.3-0.4,0.4L39.6,50.2z
			 M42,50.2c0-0.1,0.1-0.1,0.1-0.2c0.4-0.2,0.5,0,0.6,0.2H42z M43,50.2c-0.1-0.1-0.2-0.2-0.1-0.3c0.4,0.1,0.8-0.2,1.1-0.3
			c0.3,0.2,0.1,0.4,0,0.7L43,50.2z M51.8,50.2c0-0.1,0.1-0.1,0.3-0.1c0.2-0.1,0.4,0,0.5,0.1L51.8,50.2z M53.9,50.2
			C53.9,50.2,53.9,50.1,53.9,50.2c0.4,0,0.8-0.2,1.1,0L53.9,50.2z M55.2,50.2c0.2-0.3,0.8-0.1,1.2,0L55.2,50.2z M56.9,50.2
			c0.2-0.1,0.4-0.4,0.6-0.1c0.1,0,0.3,0.1,0.5,0.1L56.9,50.2z M58.6,50.2c0.2,0,0.5-0.1,0.6-0.3c0.1,0.1,0.2,0.2,0.2,0.3L58.6,50.2z
			 M73.1,50.2c0-0.5-0.1-1-0.2-1.5c0.2-0.3,0.5-0.6,0.9-0.5c0.8,0.4,0.8,1.2,0.8,2L73.1,50.2z M74.3,44.6h0.2v-0.3h-0.2V44.6z
			 M67.1,46.4c-0.4-0.1-0.6,0.4-0.9,0.5h0.4C66.8,46.7,67.1,46.7,67.1,46.4 M68.6,47.6c0-0.1-0.1-0.1-0.2-0.1
			c-0.2,0.1,0,0.3,0.1,0.3C68.5,47.8,68.7,47.7,68.6,47.6 M73.9,43.9c-0.7-1.5-1.8-3-2.8-4.2c-1.1,2.2-1.8,4.7-3.3,6.6
			c2.7,0.5,5.1,0.2,7.9,0.3c-0.2-0.3-0.5-0.4-0.7-0.6c-0.8,0-2,0.5-2.4-0.4c0-0.6,0.7-0.7,1.1-0.6l-0.3-0.6L73.9,43.9z M70.6,39.9
			c-0.4,0.1-0.8,0.1-1.2,0.6c-0.4,0.5-0.8,1.1-0.5,1.8c-0.3,0.2-0.3,0.8-0.7,0.5c-0.4,0.4-0.6,0.8-0.6,1.4c0.6,0.3,0.2,1.2,0.3,1.6
			c0.5-1.2,2-2.6,1.2-4.1c0.2-0.2,0.4-0.8,0.8-0.5C70.2,40.8,70.5,40.4,70.6,39.9 M63.8,45.4c-0.3-0.9-1-1.8-1.6-2.6L60.8,46
			c0.4,0,0.3-0.4,0.5-0.6c0.3-0.2,0.6,0.2,0.7,0.3c-0.4,0.1,0,0.3,0.1,0.5c-0.3,0.3-0.6,0.5-1.1,0.6c-0.2-0.1-0.5-0.3-0.5-0.6
			c-0.1,0.1-0.1,0.1-0.1,0.2c-0.4,0.2-0.6,0.2-1.1-0.1l-0.1,0.9c1.3,0.1,3.1,0.2,4.7,0.2c0.3,0.5,0.7,0.1,1.1,0.2
			c0.3-0.2,0.7-0.2,0.7-0.6h-0.2c-0.8,0.7-0.6-0.7-1.2-0.8c-0.1,0.2-0.1,0.5-0.4,0.5c-0.2-0.4-0.5,0.4-0.8,0
			C62.5,46.2,63.6,45.8,63.8,45.4 M60.4,45.8C61,45,61.5,44,61.7,43c-0.8,0.2-0.4,1.3-1.2,1.6C60.6,45,59.9,45.4,60.4,45.8 M48.9,49
			c0.1-0.6-0.6-0.4-1-0.6v0.2C48.3,48.7,48.6,49.3,48.9,49 M50,48.6c-0.7-0.1-0.3,0.6-0.4,1h0.2C50.2,49.4,49.9,49.1,50,48.6
			 M26.4,46.9c-0.2-0.2-0.5,0-0.8,0.1c0.1,0,0.1,0.1,0.1,0.2h0.2C26.1,47.1,26.5,47.3,26.4,46.9 M46.8,48.4l-0.1-0.1
			c-0.3,0.4-1.1,0.1-1.1,0.7C46.1,49.1,46.4,48.5,46.8,48.4 M44.9,49.5c0-0.3,0-0.8-0.3-0.9l-0.1,0.5C44.6,49.3,44.8,49.6,44.9,49.5
			 M46.8,49.3V49c-0.3-0.1-0.2,0.2-0.3,0.3H46.8z M34,45.1l-1.5-2.9c-0.3,0-0.5,0.4-0.6,0.7l0.4,0.3c0.1,0.1,0.1,0.4-0.1,0.5
			c-0.3,0.2-0.4-0.3-0.7-0.3c-0.4,0.3-0.7,1-1,1.5l0.5,0.3c0,0.1,0.1,0.3-0.1,0.4c-0.2,0.6-0.8,0.6-1.4,0.6
			c-0.5,1.3-1.5-0.5-2.3-0.3l1.1,0.8c0.5-0.1,1,1.1,1.5,0.2c1.6,0.1,3.4,0.1,5.1,0c-0.5-0.3-0.3-1-0.9-1.1
			C33.9,45.5,33.8,45.3,34,45.1 M33.6,43.7v-0.4l-0.3-0.4L33.6,43.7z M33.7,43.8l0.5,1c0,0.1,0.1,0.3,0.2,0.4l-0.2-0.4
			c0-0.2,0-0.3,0.1-0.5C34.1,44.1,33.9,44,33.7,43.8 M35.3,46.8c-0.3-0.2-0.1-0.7-0.5-0.7l-0.1,0.2C34.9,46.3,35,46.9,35.3,46.8
			 M24,39.7c0-0.3-0.2-0.7-0.5-0.7c-0.3,0.5-1,1-1,1.6l0.1-0.1c0.2-0.2,0.5-0.1,0.7,0.1c0.1,0.3,0.1,0.8-0.3,1
			c-0.4,0.1-0.6-0.4-0.9-0.6l-1.2,1.5c-0.6,0.4,0.1,0.8-0.2,1.3c-0.3,0.1-0.5-0.2-0.6-0.3c-0.1,0.2-0.3,0.3-0.3,0.5h0.7
			c0.5,0.1,0.4,0.7,0.6,1.1l-0.8,0.3C20,45.1,19.7,45,19.4,45c-0.3,0.1-0.7,0.4-0.8,0.7c2.5,0.1,5.6,0.1,7.9,0.1
			C25.4,43.9,24.7,41.8,24,39.7 M25.8,41c-0.3-0.7-0.6-1.8-1.6-1.9c0.3,0.5,0,1.8,1.1,1.5c0.4,0.2,0.2,0.6,0.2,0.9
			c-0.5,0.8,0.3,1.8,0.5,2.5c0.6,0.2,0.2,0.9,0.6,1.2c1.1,0.4-0.4-0.4,0.1-1c0-0.3,0.3-0.6,0.6-0.7c-0.4-0.5-0.4-1.4-1.1-1.4
			C25.7,41.9,25.6,41.4,25.8,41"/>
		<path class="st4" d="M71.8,41.5v0.5c-0.3,0.1-0.9,0.2-1.1-0.2c0-0.3,0.2-0.4,0.5-0.5C71.5,41.2,71.8,41.2,71.8,41.5"/>
		<path class="st4" d="M24.9,43.4c-0.6,0.5,0.8,1.9-0.7,1.8c-0.5-0.7-1.4,0.6-1.5-0.6c0.4-0.6,1.2-0.5,1.8-0.6
			c-0.1-0.3-0.4-0.4-0.7-0.5l-0.2,0.3l-0.1-0.1c0.1-0.5,0.8-0.6,1.1-0.3C24.7,43.3,24.7,43.4,24.9,43.4"/>
		<path class="st4" d="M62.6,43.9l-0.2,0.2l-0.1-0.4C62.6,43.6,62.5,43.8,62.6,43.9"/>
		<path class="st4" d="M70.7,44.1c-0.2,0.2-0.6,0.2-0.5,0.5c0.2,0.2,1,0,0.9,0.7c0.3,0.6-0.5,0.4-0.8,0.5c-0.4-0.5-1.1,0.6-1.5-0.4
			c-0.1-0.5,0.5-0.5,0.8-0.7c0.2-0.1-0.1-0.2-0.1-0.4C69.8,44,70.4,43.5,70.7,44.1"/>
		<path class="st4" d="M33.4,45.1c-0.1,0.3-0.4,0.6-0.1,0.9c-0.2,0.2-0.5,0.1-0.8,0.1c-0.6-0.4,0.1-0.8,0.3-1.1
			C33,45.1,33.3,45,33.4,45.1"/>
		<path class="st4" d="M21.3,47.8v0.2c-0.3,0.1-0.3-0.3-0.6-0.3C20.8,47.5,21.1,47.7,21.3,47.8"/>
		<path class="st4" d="M24.8,47.8c0.1,0.2-0.1,0.2-0.2,0.3c-0.2-0.1-0.5-0.1-0.5-0.3C24.3,47.8,24.6,47.5,24.8,47.8"/>
		<path class="st4" d="M23.3,48.4c0.2,0.3-0.1,0.9,0.3,1c-0.1-0.8,0.4-0.7,1-0.8h0.1V51c-0.5,0.1-1.4-0.3-1.8,0.3l-0.3-0.2
			c1.1-0.4,0.4-1.8,0.6-2.8c-0.3,0-0.3-0.4-0.2-0.6C23.3,47.9,23,48.4,23.3,48.4"/>
		<path class="st4" d="M20.8,48.3c-0.2,0.9-0.1,2-0.1,2.7h-1.1c0.1-0.9-0.1-2,0.2-2.7l0.2,0.3C20.3,48.5,20.5,48,20.8,48.3"/>
		<path class="st4" d="M75.1,49c0,0.2,0.1,0.4-0.1,0.5C74.8,49.5,74.8,48.9,75.1,49"/>
		<path class="st4" d="M34.4,49.5c0.1,0.3-0.2,0.5-0.4,0.4l0.2-0.5"/>
		<path class="st4" d="M27.5,50.3L27.5,50.3c-0.4,0-0.5-0.4-0.2-0.6C27.4,49.7,27.5,50,27.5,50.3"/>
		<path class="st4" d="M60.8,50.3l-0.1,0.2c-0.2,0-0.5-0.1-0.6-0.4l0.2-0.2C60.4,49.9,60.6,50.1,60.8,50.3"/>
		<rect x="53.1" y="49.9" class="st4" width="0.2" height="0.3"/>
		<path class="st4" d="M25.6,50.9c0,0.1,0.1,0.3-0.1,0.3c-0.1,0-0.3,0.1-0.3-0.1C25.3,51.1,25.4,50.7,25.6,50.9"/>
		<path class="st4" d="M21.8,51.1v0.2h-0.4C21.3,51.1,21.6,50.9,21.8,51.1"/>
		<path class="st4" d="M21,52.7c-0.2,0.4-0.5,0.6-1,0.5l-0.2-0.1l0.7-0.3c-0.1-0.2-0.4-0.3-0.6-0.2C20.2,52.2,20.8,52.4,21,52.7"/>
		<path class="st4" d="M24.8,53.1l0.2,0.2c-0.2,0.2-0.5,0.6-0.9,0.6c-0.1-0.1-0.2-0.2-0.2-0.3c0.6-0.2-0.1-0.5-0.1-0.8l-0.3-0.2
			c0.2-0.4,0.7,0.2,1.1-0.1C24.7,52.6,24.8,52.8,24.8,53.1"/>
		<path class="st4" d="M45.7,53.1h-0.5c-0.1-0.3,0.1-0.5,0.3-0.6h0.2"/>
		<path class="st4" d="M23.1,54.6L23,54.8c-0.1-0.5,0-1.1-0.5-1.4c0-0.2,0.3-0.3,0.5-0.2C23.3,53.6,23.1,54.1,23.1,54.6"/>
		<path class="st4" d="M35.4,53.2c0,0.1,0.1,0.3-0.1,0.3h-0.1v-0.3"/>
		<path class="st4" d="M39.4,53.5c0.1,0.2-0.2,0.2-0.2,0.2c-0.2-0.1-0.4-0.4-0.1-0.6C39.3,53.3,39.3,53.3,39.4,53.5"/>
		<path class="st4" d="M47.7,53.3v0.2c-0.2,0-0.5,0-0.5-0.3C47.4,53.2,47.6,53.2,47.7,53.3"/>
		<path class="st4" d="M20.5,53.5c0,0.1,0,0.2-0.1,0.2h-0.2v-0.3C20.3,53.5,20.4,53.4,20.5,53.5"/>
		<path class="st4" d="M7.1,55.2C7,54.7,6,54.9,6.3,55.5c0.1,0.2,0.4,0.1,0.6,0.1C6.9,55.5,7.2,55.5,7.1,55.2 M8.1,56
			c0-0.4-0.9-0.4-0.8,0.1c0.1,0.2,0.2,0.4,0.5,0.3C7.9,56.2,8.2,56.3,8.1,56 M6.3,56.6c0.3-0.5-0.5-0.9-0.7-0.4c0,0.2,0,0.4,0.2,0.5
			C5.9,56.9,6.1,56.7,6.3,56.6 M7.3,57c0-0.5-0.9-0.3-0.7,0.2c0.1,0.2,0.3,0.3,0.6,0.2C7.3,57.3,7.3,57.2,7.3,57 M8.2,55.3
			c0.3,0.3,0.4,0.6,0.3,1.1c-1,0.2-0.5,2-1.9,1.4c-0.3-0.8-1.5-0.4-1.5-1.3c0-0.7,0.9-0.8,0.8-1.6c0.3-0.3,0.7-0.4,1.1-0.2
			C7.3,55,7.7,55.3,8.2,55.3"/>
		<path class="st4" d="M67.8,55.7c-0.1,0.1-0.2,0.1-0.2,0.1v-0.4C67.7,55.4,67.7,55.6,67.8,55.7"/>
		<path class="st4" d="M87.1,57c-0.1-0.4-0.9-0.3-0.7,0.2c0.1,0.2,0.2,0.3,0.4,0.2C86.9,57.4,87.2,57.3,87.1,57 M88.7,57.5
			c-0.1-0.2-0.2-0.3-0.4-0.3c-0.2,0.1-0.4,0.3-0.3,0.6c0.1,0.2,0.2,0.2,0.4,0.2C88.7,58.1,88.8,57.7,88.7,57.5 M87.6,58.2
			c0.1-0.3-0.2-0.4-0.4-0.4c-0.2,0.1-0.3,0.2-0.3,0.4c0,0.3,0.3,0.4,0.5,0.4C87.5,58.5,87.6,58.4,87.6,58.2 M88.1,56.4
			c-0.3-0.3-0.8-0.1-0.7,0.3c0.1,0.1,0.3,0.3,0.5,0.2C88.1,56.8,88.2,56.6,88.1,56.4 M89.2,57.5c-0.1,0.3-0.2,0.7-0.6,0.9
			c-0.7,0-1.6,1.3-2.1,0.1c0.4-0.8-1.5-1.6,0-2.2c0.7,0,1.2-1.1,1.9-0.3C88.7,56.5,88.7,57.1,89.2,57.5"/>
		<path class="st4" d="M27.5,56.8c0.1,0.2-0.1,0.2-0.2,0.2c-0.1,0-0.2-0.1-0.2-0.2C27,56.6,27.4,56.7,27.5,56.8"/>
		<path class="st4" d="M28,56.9c0,0.1,0.1,0.3-0.1,0.3h-0.1v-0.4C28,56.8,28,56.8,28,56.9"/>
		<path class="st4" d="M28.9,57c0,0.1-0.1,0.2-0.2,0.2c-0.2,0-0.3-0.3-0.1-0.4C28.7,56.8,28.7,57,28.9,57"/>
		<rect x="30.6" y="57.1" class="st4" width="0.1" height="0.5"/>
		<path class="st4" d="M65.5,57.7l-0.1,0.1v-0.4C65.6,57.4,65.5,57.6,65.5,57.7"/>
		<path class="st4" d="M61.7,57.6v0.2h-0.2C61.4,57.6,61.6,57.4,61.7,57.6"/>
		<path class="st4" d="M16.4,58c0,0.3-0.3,0.1-0.4,0.2c-0.1-0.1-0.2-0.3-0.1-0.4C16.1,57.8,16.3,57.7,16.4,58"/>
		<path class="st4" d="M27.2,58.4c0.1,0.1-0.1,0.2-0.2,0.3l-0.2-0.2C26.8,58.3,27.1,58.2,27.2,58.4"/>
		<path class="st4" d="M16.3,58.7c0,0.1,0,0.3-0.2,0.2c-0.1,0-0.3,0.1-0.3-0.1l0.2-0.4C16.1,58.4,16.2,58.6,16.3,58.7"/>
		<path class="st4" d="M16.3,59.3c0,0.2-0.2,0.3-0.3,0.4c-0.1-0.2-0.3-0.4-0.1-0.5C16.1,59.1,16.2,59.2,16.3,59.3"/>
		<path class="st4" d="M32.4,60.8c-0.3,0-0.8,0.6-1.1,0.1L31,60.6c-0.2,0.1-0.3,0.6-0.7,0.4c-0.1-0.2,0-0.4-0.1-0.6
			c0.5-0.9,1.1,0.8,1.4-0.3l0.2-0.3C31.8,60.2,32.3,60.4,32.4,60.8"/>
		<path class="st4" d="M33.5,60.3c0.2,0.3,0,0.5-0.2,0.8c-0.2,0-0.3-0.1-0.4-0.2C33,60.6,33.2,60.2,33.5,60.3"/>
		<path class="st4" d="M61.2,61c-0.1,0.3-0.4,0.4-0.6,0.2c-0.1-0.2-0.3-0.4,0-0.6C60.8,60.7,61.2,60.7,61.2,61"/>
		<path class="st4" d="M33.9,61.4c-0.1,0.3-0.3,0.5-0.6,0.6c-0.4-0.2-1.3,0.1-1.5-0.4C32.4,61.2,33.3,61.3,33.9,61.4"/>
		<path class="st4" d="M62.2,61.9c0,0.2-0.1,0.4-0.2,0.4c-0.7,0-1.5,0.2-1.8-0.5c0.1-0.5,0.7,0,1.1-0.2"/>
		<path class="st4" d="M70.9,65.6c-1.5-0.6-3-1.9-4.8-1.3c-0.5,0.3-1.3,0.9-1.1,1.5c0.6,0.4,1.1-0.7,1.8-0.9
			c0.7-0.2,1.7-0.3,2.3,0.1C69.8,65.1,70.3,65.9,70.9,65.6 M70.6,66.2c-1.2-0.3-2.7-1.5-3.8-0.2c-0.4,0.2-0.2,0.6,0,0.8
			C68,66.5,69.3,65.9,70.6,66.2 M66.6,67.4l-1.2-0.9c-0.5,0.1-1.2-0.9-1.5-0.1c1.2-0.2,2,0.8,2.8,1.3V67.4z M65.5,67.8
			c-0.2-0.7-1.3-0.4-1.6,0.2c-0.3,0.5-0.2,1.3,0.2,1.6C64.6,69.2,65.5,68.5,65.5,67.8 M63.8,70.9c-0.4-0.6-0.2-1.7-1.1-1.9
			c-0.1,0.8,0.1,1.7,0.5,2.4C63.7,71.6,63.6,71.1,63.8,70.9 M62.5,72.3c-0.1-0.2-0.1-0.6-0.4-0.6l0.2,0.7
			C62.4,72.4,62.5,72.4,62.5,72.3 M62,72.9c-0.3-0.2-0.3-1.6-0.7-0.5c0.3,0.3,0.1,1.2,0.7,1.1V72.9z M73.1,64.9l0.2,0.1
			c-0.4,0.5-1.1,0.5-1.3,1c0.6,0.5,1.6,0.2,2.2-0.1l0.2,0.1c-0.4,0.7-1.6,0.6-2.3,1c0.2,0.7,1.2,0.7,1.4,1.2c-2.1-0.4-5.1-2.1-7,0.1
			c-1.1,0-1.5,1.3-2.1,2c0,1.4-2.1,2.1-1.9,3.5c1.3-1.1,2.3-2.6,3.7-3.5c0.2,0.2,0,0.6,0.3,0.7c1.2-0.6,2.2-1.5,3.4-2.2l-4.2,4.2
			c-0.3-0.1-0.1-0.7-0.6-0.5c-0.4,0.7-1.5,0.7-1.3,1.6c0.1,0.3,0.4,0.5,0.7,0.4c1.4-0.4,2.5-1.2,3.9-1.6c0,0.2-0.4,0.6-0.7,0.5
			c-1.6,0.8-3,1.6-4.6,2.4c-1.1-0.4-2,0.7-3,1c0.5-0.9,1.3-1.6,1.9-2.5l-0.2-0.2c-0.8,0.5-1.5,1.6-2.2,2.2c0.3-1.6,1.5-2.7,1.5-4.3
			c0.2-0.3,0.3-0.8,0.7-0.9c1.1-0.9,0.1-2.8,1.6-3.3c1.1-0.7-0.4-1.6,0.5-2.2c-0.2-0.7,0.5-1.3,1.1-1.6c0.9-0.1,1.8-0.9,2.9-0.5
			C69.4,64.1,71.1,65.5,73.1,64.9"/>
		<path class="st4" d="M60.9,68c0.3,0.5,0.8-0.3,0.9,0.3c-0.3,1.5-1.1,2.7-1.5,4.1c-0.1,1.3-1,2.4-1.4,3.7h-0.2V74l-0.5-0.2
			c0-1.9-0.1-3.9,0.1-5.9c0.3,0.7,0,1.9,0.2,2.8c0.2,0.6,0.2,1.5,1.1,1.6c0.4-0.5,0.2-1.3,0.5-1.9L59.7,70l1.4-5.7h0.2"/>
		<path class="st4" d="M26.1,64.9c-0.2-0.1-0.2-0.4-0.1-0.5C26.2,64.4,26.1,64.7,26.1,64.9"/>
		<path class="st4" d="M36,75.7L36,75.7c-0.5,0.1-1,0.7-1.3,0.2c0-0.2,0.3-0.5,0.4-0.7c0.2-0.2,0-0.6-0.2-0.6
			c0.1-0.9-0.8-0.2-1.2-0.6c0.1-1.2,0.7-2.2,1.5-3.1c0.6-0.7-0.5-1.2,0-1.9c0.3-1.3-0.7-2.3-1.3-3.2c-1.3-0.8-3.1-1.5-4.5-0.7
			c-1.5,0.7-2.4,2.1-2.4,3.8c0.4,0.7,0.3,1.7,1.2,2.1c-0.5,1.4-1.4,0-2.1,0.2c-0.5-0.2-0.5-0.6-0.2-0.9l-0.4,0.1
			c-0.2-0.1-0.5-0.3-0.4-0.6c-0.1-0.5,0.4-0.4,0.6-0.4c-0.3-0.3-0.4-1.3-1.1-0.9c0-0.3,0-0.6-0.3-0.8c-0.6-1.4,1.1-0.8,1.6-1.3
			c0-0.4,0.5-0.7,0.3-1.1L25.4,66c-0.2,0.1-0.4,0.1-0.6-0.2c0.1-0.2,0.3-0.1,0.5-0.1c0.3-0.2,0.4-0.5,0.2-0.8
			c-0.6,0.6-0.8-0.6-1.5-0.3c0,0.4,0.3,0.6,0.3,1c-0.5,0.4-0.7-0.7-1.2-0.7c-0.1,0.3,0.3,0.6-0.1,0.8c-0.5-0.1-0.8-0.6-0.8-1.2
			c-0.2-0.2-0.5,0-0.7,0.2c0,0.1,0.1,0.2,0.2,0.2c0.6,0.3,0.8,1,1,1.6c1.4,0.6-0.3,2.3,1.1,2.7c0.5,1.2,1.2,2.1,2,3.1
			c1.7,0.9,2.1,2.6,4.2,2.6c1.5,0.9,3-0.2,4.5-0.3c0.2,0.2,0.5,0.4,0.2,0.6l-0.5-0.1V76c0.2,0.3,0.6,0.9,1.2,0.6
			C35.7,76.3,36.3,76.1,36,75.7 M24,68.7c-0.1,0-0.2,0-0.2-0.1c0-0.2,0.3-0.5,0.4-0.5C24.1,68.3,24.2,68.6,24,68.7 M27.5,72.6
			c-0.8,0.1-1.4-0.7-2-1.3c-0.1-0.1-0.2-0.2-0.3-0.3c0.1,0.1,0.2,0.2,0.3,0.3c0.6,0.5,1.3,0.5,2,0.9V72.6z M33.8,71.1l-0.1-1.1
			c0.4,0,0.3,0.4,0.5,0.6C34.1,70.8,34.2,71.2,33.8,71.1 M33.7,67.4c0.7-0.1,0.8,0.6,1.2,1l-0.2,1.2c-0.8-0.3-1.3-1-1.6-1.6
			c0.4-0.1,0.6,1,1,0.2C34.2,67.6,33.2,68,33.7,67.4 M33.4,70c-0.2,0.1-0.4-0.2-0.4-0.3c-0.3-0.6,0.7-0.5,0.5,0
			C33.5,69.8,33.6,69.9,33.4,70 M32.7,70c0,0.3-0.2,0.5-0.5,0.5c-0.3,0.1-0.6-0.2-0.7-0.5C31.7,69.5,32.5,69.5,32.7,70 M31.9,68.1
			c0.3,0.2,1,0,1,0.5c-0.3,0.4-0.7,0.6-1.2,0.5C31.2,68.8,31.9,68.5,31.9,68.1 M32.9,70.9h0.2v0.4c-0.4-0.1-0.6,0.1-1,0.2
			C31.9,70.7,32.6,71.3,32.9,70.9 M27.5,68.9c0.6-0.5,0.2-1.6,1.1-1.8c-0.1,0.3,0.1,0.8-0.2,1c0.2,0.3,0.7,0.1,0.7,0.5
			c0,0.4,0.1,0.9-0.5,0.8L27.5,68.9z M27.9,72.6c-0.2-0.3,0-1,0.5-0.8C27.9,72,28.7,72.7,27.9,72.6 M27.9,70.2v-0.6
			c0.5,0.6,1.8-0.4,1.5,1c-0.2,0.6-0.8,0.2-1,0C28.4,70.2,27.9,70.4,27.9,70.2 M28.6,71.6l0.1-0.2c0.1,0,0.3,0.1,0.3,0.1
			C28.9,71.7,28.7,71.6,28.6,71.6 M29.4,73.6c-0.3,0-0.4-0.5-0.6-0.8l0.4-0.5C29.4,72.7,30.3,73.3,29.4,73.6 M30.4,71.4
			c-0.2,0.2-0.5,0.3-0.8,0.1c-0.1-0.2-0.1-0.5,0.1-0.7C30,70.2,30.6,71,30.4,71.4 M30.1,69c0.2,0,0.2,0.1,0.3,0.2l-0.2,0.2L30.1,69z
			 M29.8,68.3c-0.3-0.1-0.6-0.3-0.8-0.5c-0.2-0.7,0.2-1.1,0.6-1.4c0.6-0.3,0.5,0.4,0.9,0.6C29.6,67.1,30.7,68.1,29.8,68.3
			 M30.5,66.2c-0.1-0.4-0.6-0.6-1-0.6l-0.2,0.1c0.3-0.2,1.1-0.8,1.7-0.3c-0.1,0.7,0.6,0,0.9,0.4l0.4-0.2c0.2,0.4-0.4,0.7-0.6,0.9
			C31.2,66.3,31,65.5,30.5,66.2 M30.7,67.2c0.7-0.3,1.5-0.2,2.1-1c0.3,0,0.9,0,0.7,0.5c0.1,0.2-0.1,0.2-0.3,0.3
			c-0.3,0.2-0.3,0.7-0.9,0.7c0-0.2-0.2-0.4-0.4-0.6c-0.7,0.1-0.2,1.3-1.2,0.8C30.7,67.8,30.5,67.5,30.7,67.2 M31.5,71.6
			c-0.5,0.2-0.6-0.4-0.7-0.6c-0.1-0.3,0.1-0.5,0.3-0.6c0.3,0.1,0.6,0.2,0.7,0.6C31.8,71.3,31.7,71.5,31.5,71.6 M32.7,73
			c-0.4,0.1-0.4-0.4-0.8-0.3l0.2-0.4c0.2,0.2,0.5,0.3,0.6,0.6V73z M33.3,73c0-0.6-1.1-0.7-0.6-1.2c0.5-0.2,0.8,0.3,1,0.6
			C33.4,72.6,33.7,73.1,33.3,73"/>
		<path class="st4" d="M26.7,70.7c-0.3,0.1-0.7-0.3-0.6-0.6C26.3,70.4,26.9,70.2,26.7,70.7"/>
		<path class="st4" d="M45.2,74.9c0,0.1,0,0.1-0.1,0.2l-0.2-0.2"/>
		<path class="st4" d="M33.1,84.9c-0.1-0.5-0.8-0.1-0.6,0.2c0,0.2,0.2,0.3,0.4,0.2C33.1,85.4,33.1,85.1,33.1,84.9 M31.9,85.4
			c-0.2-0.5-0.9-0.2-0.7,0.3l0.5,0.1C31.9,85.8,32,85.6,31.9,85.4 M33.7,86.2c0-0.5-1-0.4-0.7,0.2c0.1,0.2,0.2,0.2,0.4,0.2
			C33.5,86.6,33.6,86.4,33.7,86.2 M32.5,86.6c0-0.5-0.9-0.3-0.7,0.2c0,0.2,0.3,0.3,0.5,0.2C32.3,86.9,32.5,86.9,32.5,86.6
			 M33.5,84.6c-0.4,0.9,1,1.2,0.5,2c-0.4,0.5-1.1,0.3-1.5,0.8c-0.4,0.2-0.9,0-1.2-0.4c0.3-0.9-1.5-2,0.2-2.3
			C32.2,85,32.9,83.5,33.5,84.6"/>
		<path class="st4" d="M61.9,85.1c0-0.2-0.3-0.2-0.4-0.3c-0.2,0.1-0.3,0.3-0.2,0.6c0.1,0.1,0.2,0.2,0.4,0.2
			C61.9,85.5,61.7,85.2,61.9,85.1 M63,85.7c0.2-0.4-0.5-0.5-0.6-0.2c0,0.1-0.1,0.3,0.1,0.4C62.6,86.1,62.9,85.9,63,85.7 M61.4,86.2
			c-0.1-0.2-0.3-0.4-0.5-0.4c-0.1,0.1-0.4,0.3-0.3,0.6c0,0.3,0.3,0.2,0.5,0.2C61.3,86.6,61.3,86.4,61.4,86.2 M62.5,86.6
			c-0.1-0.1-0.2-0.2-0.4-0.1c-0.1,0.2-0.3,0.1-0.2,0.4c-0.1,0.3,0.2,0.2,0.4,0.2C62.5,87.1,62.5,86.9,62.5,86.6 M63.3,85.1
			c0.3,0.2,0.2,0.7,0.1,1c-0.8,0.3-0.1,1.3-0.9,1.5c-0.8,0.3-1-0.7-1.8-0.6c-0.3-0.2-0.5-0.6-0.4-1c1-0.4,0.2-2,1.6-1.7
			C62.2,84.8,62.8,84.9,63.3,85.1"/>
		<path class="st4" d="M6.2,44.7L8,44.8c0.4,0,0.6,0,0.7,0c0.1,0,0.2-0.1,0.2-0.2C9,44.4,9,44.2,9,43.9l0.2,0L9,47.3l-0.2,0
			c0-0.3,0-0.5,0-0.6c0-0.1-0.1-0.2-0.2-0.2c-0.1-0.1-0.3-0.1-0.7-0.1L3.7,46c-0.4,0-0.6,0-0.7,0c-0.1,0-0.2,0.1-0.2,0.2
			c-0.1,0.1-0.1,0.3-0.1,0.6l-0.2,0L2.7,44c0.1-0.9,0.3-1.6,0.6-2c0.4-0.4,0.8-0.6,1.3-0.5c0.4,0,0.8,0.2,1.1,0.5
			c0.3,0.3,0.5,0.7,0.5,1.1C6.3,43.4,6.3,43.9,6.2,44.7 M3,44.4l2.8,0.2c0-0.1,0-0.2,0-0.2c0-0.4-0.1-0.7-0.3-0.9
			c-0.2-0.2-0.6-0.4-1.1-0.4c-0.5,0-0.8,0-1.1,0.2c-0.2,0.2-0.4,0.5-0.4,0.9L3,44.4z"/>
		<path class="st4" d="M3.7,36.4c0.2-1,0.7-1.8,1.5-2.2c0.8-0.5,1.6-0.6,2.6-0.4c0.8,0.2,1.4,0.6,1.9,1.2c0.7,0.8,0.8,1.8,0.6,2.9
			c-0.3,1.1-0.9,1.9-1.8,2.4c-0.7,0.3-1.5,0.4-2.4,0.2C5.2,40.3,4.5,39.8,4,39C3.6,38.2,3.5,37.4,3.7,36.4 M4,36.5
			c-0.1,0.6,0,1.1,0.6,1.5c0.4,0.4,1.1,0.7,2,0.9c1.1,0.3,1.9,0.3,2.5,0c0.4-0.2,0.7-0.5,0.8-1c0.1-0.3,0.1-0.6,0-0.9
			c-0.1-0.3-0.4-0.6-0.8-0.9c-0.4-0.3-0.9-0.5-1.7-0.7c-0.8-0.2-1.5-0.3-1.9-0.2c-0.5,0.1-0.8,0.2-1,0.4C4.3,35.9,4.1,36.1,4,36.5"
			/>
		<path class="st4" d="M11.6,28.2l2,1.2l-2.4,5.2L11,34.6l0.1-0.2c0.1-0.2,0.1-0.3,0.1-0.5c0-0.1,0-0.2-0.1-0.3
			c-0.1-0.1-0.2-0.2-0.5-0.3l-3.9-1.8c-0.3-0.1-0.5-0.2-0.6-0.2c-0.1,0-0.2,0-0.3,0.1c-0.1,0.1-0.2,0.2-0.3,0.4L5.4,32l-0.2-0.1
			l1.5-3.1l0.2,0.1l-0.1,0.3c-0.1,0.2-0.1,0.3-0.1,0.5c0,0.1,0,0.2,0.1,0.3C6.8,29.9,7,30,7.3,30.1l3.8,1.8c0.3,0.1,0.5,0.2,0.6,0.2
			c0.1,0,0.2,0,0.3-0.1c0.1-0.1,0.2-0.2,0.3-0.5l0.2-0.5c0.1-0.3,0.2-0.6,0.2-0.9c0-0.3-0.1-0.5-0.3-0.8c-0.2-0.3-0.5-0.6-0.9-0.9"
			/>
		<path class="st4" d="M15.5,25.7l0.1,0.1l-1.8,2.9l-0.1-0.1l0.1-0.2c0.1-0.2,0.2-0.3,0.2-0.4c0-0.1,0-0.2-0.1-0.3
			c0-0.1-0.2-0.2-0.5-0.4L9.7,25c-0.3-0.2-0.5-0.3-0.6-0.3c-0.1,0-0.2,0-0.3,0.1c-0.1,0.1-0.2,0.2-0.3,0.3l-0.1,0.2l-0.1-0.1
			l1.8-2.9l0.1,0.1l-0.1,0.2C10,22.8,10,22.9,10,23.1c0,0.1,0,0.2,0.1,0.3c0.1,0.1,0.2,0.2,0.5,0.4l3.7,2.3c0.3,0.2,0.5,0.3,0.6,0.3
			c0.1,0,0.2,0,0.3-0.1c0.1-0.1,0.2-0.2,0.3-0.3"/>
		<path class="st4" d="M14.3,16.9l1.4,1.1l-0.1,0.1c-0.4-0.2-0.7-0.3-0.9-0.3c-0.2,0-0.4,0-0.7,0.1c-0.1,0.1-0.3,0.2-0.5,0.4
			l-0.3,0.4l3.9,3.2c0.3,0.2,0.4,0.3,0.5,0.4c0.1,0,0.2,0,0.3,0c0.1,0,0.2-0.1,0.3-0.3l0.1-0.2l0.1,0.1l-2.1,2.6l-0.1-0.1l0.1-0.2
			c0.1-0.1,0.2-0.3,0.2-0.4c0-0.1,0-0.2-0.1-0.3c0-0.1-0.2-0.2-0.4-0.4L12.3,20L12,20.4c-0.3,0.3-0.4,0.6-0.4,0.9
			c0,0.4,0.2,0.8,0.5,1.1L12,22.6l-1.4-1.1"/>
		<path class="st4" d="M17.4,14.5l1.7,2l0.1-0.1c0.3-0.3,0.5-0.6,0.4-0.9c0-0.3-0.2-0.7-0.5-1.1l0.1-0.1l2.2,2.6L21.5,17
			c-0.3-0.3-0.5-0.4-0.8-0.5c-0.3-0.1-0.5-0.1-0.6-0.1c-0.2,0-0.4,0.2-0.6,0.4l1.2,1.4c0.2,0.3,0.4,0.4,0.5,0.5c0.1,0,0.2,0.1,0.3,0
			c0.1,0,0.2-0.1,0.4-0.2l0.3-0.3c0.5-0.4,0.7-0.8,0.8-1.3c0.1-0.5,0-0.9-0.2-1.5l0.1-0.1l1.1,1.8l-4.3,3.7l-0.1-0.1l0.2-0.1
			c0.1-0.1,0.2-0.2,0.3-0.4c0-0.1,0-0.2,0-0.3c0-0.1-0.1-0.3-0.4-0.5l-2.8-3.3c-0.2-0.2-0.3-0.4-0.4-0.4c-0.1-0.1-0.2-0.1-0.3-0.1
			c-0.2,0-0.3,0.1-0.5,0.2L15.4,16l-0.1-0.1l4.1-3.6l1.3,1.5l-0.1,0.1c-0.4-0.3-0.7-0.5-1-0.5c-0.3,0-0.5,0-0.8,0.1
			c-0.2,0.1-0.4,0.3-0.8,0.6"/>
		<path class="st4" d="M25.9,7.7l1.2,1.9l-0.2,0.1C26.5,9.3,26,9.1,25.6,9c-0.5-0.1-0.9,0-1.4,0.3c-0.3,0.2-0.6,0.5-0.8,0.9
			c-0.2,0.4-0.2,0.8-0.1,1.2c0.1,0.5,0.3,1,0.6,1.5c0.3,0.5,0.7,0.9,1,1.2c0.4,0.3,0.8,0.5,1.2,0.6c0.4,0,0.8-0.1,1.2-0.3
			c0.3-0.2,0.6-0.5,0.8-0.8c0.2-0.3,0.3-0.8,0.4-1.4l0.3,0.5c-0.1,0.5-0.3,1-0.5,1.3c-0.2,0.4-0.6,0.7-1,1c-0.6,0.4-1.2,0.6-1.8,0.6
			c-0.6,0-1.2-0.1-1.7-0.4c-0.5-0.3-0.9-0.7-1.3-1.2c-0.3-0.5-0.5-1.1-0.5-1.8c0-0.6,0.1-1.2,0.4-1.8c0.3-0.6,0.7-1,1.2-1.3
			c0.4-0.2,0.9-0.4,1.4-0.5c0.3-0.1,0.5-0.1,0.6-0.1c0.1-0.1,0.1-0.1,0.2-0.2c0-0.1,0-0.2-0.1-0.4"/>
		<path class="st4" d="M29.5,6.1L34,8.6L32.9,6c-0.1-0.4-0.3-0.6-0.5-0.7c-0.2-0.1-0.5-0.1-0.8,0l-0.1-0.2l2-0.8l0.1,0.2
			c-0.2,0.1-0.4,0.2-0.5,0.3c-0.1,0.1-0.1,0.2-0.1,0.3c0,0.1,0.1,0.4,0.2,0.6l2,5L35.1,11L29,7.6l1.6,3.9c0.1,0.4,0.3,0.6,0.5,0.6
			c0.2,0.1,0.4,0,0.6,0l0.1-0.1l0.1,0.2L29.8,13l-0.1-0.2c0.3-0.1,0.5-0.3,0.6-0.5c0.1-0.2,0.1-0.4-0.1-0.8l-1.7-4.3l-0.2-0.1
			C28.1,7.1,28,7,27.8,7c-0.1,0-0.3,0-0.5,0.1l-0.1-0.2"/>
		<path class="st4" d="M39.5,9.6l0,0.2l-3.3,0.8l0-0.2l0.2,0c0.2,0,0.3-0.1,0.4-0.2c0.1-0.1,0.1-0.2,0.1-0.3c0-0.1,0-0.3-0.1-0.6
			l-1-4.2c-0.1-0.3-0.1-0.5-0.2-0.6c-0.1-0.1-0.1-0.1-0.3-0.2c-0.1,0-0.3,0-0.4,0l-0.2,0l0-0.2l3.3-0.8l0,0.2l-0.2,0
			c-0.2,0-0.3,0.1-0.4,0.2c-0.1,0.1-0.1,0.2-0.1,0.3c0,0.1,0,0.3,0.1,0.6l1,4.2c0.1,0.3,0.1,0.5,0.2,0.6c0.1,0.1,0.1,0.1,0.3,0.2
			c0.1,0,0.3,0,0.4,0"/>
		<path class="st4" d="M45.2,2.3l0.2,2.3l-0.2,0c-0.2-0.6-0.5-1-0.9-1.3C44,3,43.5,2.9,43,3c-0.4,0-0.8,0.2-1.1,0.5
			c-0.3,0.3-0.5,0.6-0.6,1c-0.1,0.5-0.2,1.1-0.1,1.6c0.1,0.6,0.2,1.1,0.4,1.6c0.2,0.5,0.5,0.8,0.8,1c0.3,0.2,0.8,0.3,1.3,0.2
			c0.4,0,0.8-0.2,1.1-0.4c0.3-0.2,0.6-0.6,1-1L45.7,8c-0.3,0.4-0.7,0.7-1,0.9c-0.4,0.2-0.8,0.3-1.4,0.4c-0.7,0.1-1.3,0-1.9-0.2
			c-0.6-0.2-1-0.6-1.4-1.1c-0.3-0.5-0.6-1-0.6-1.6c-0.1-0.6,0-1.2,0.3-1.8c0.3-0.6,0.7-1.1,1.2-1.4c0.5-0.4,1.1-0.6,1.7-0.6
			c0.5,0,0.9,0,1.5,0.1c0.3,0.1,0.5,0.1,0.6,0.1c0.1,0,0.2-0.1,0.3-0.1c0.1-0.1,0.1-0.2,0.1-0.4"/>
		<path class="st4" d="M50.5,2.5c1,0,1.9,0.4,2.5,1.1c0.6,0.7,0.9,1.5,0.8,2.5c-0.1,0.8-0.3,1.5-0.9,2.1c-0.7,0.8-1.6,1.1-2.8,1.1
			c-1.2-0.1-2.1-0.5-2.6-1.4c-0.5-0.7-0.7-1.4-0.6-2.3c0.1-1,0.4-1.7,1.2-2.3C48.7,2.7,49.5,2.4,50.5,2.5 M50.5,2.9
			c-0.6,0-1.1,0.2-1.4,0.8c-0.3,0.5-0.5,1.2-0.5,2.1c-0.1,1.1,0.1,1.9,0.4,2.5c0.2,0.4,0.6,0.6,1.1,0.6c0.3,0,0.6,0,0.8-0.2
			c0.3-0.2,0.5-0.5,0.7-0.9c0.2-0.4,0.3-1,0.4-1.7c0.1-0.9,0-1.5-0.1-1.9c-0.1-0.4-0.3-0.8-0.6-0.9C51.1,3,50.9,2.9,50.5,2.9"/>
		<path class="st4" d="M55.8,9.8l0.1-0.2L56,9.8c0.2,0.1,0.3,0.1,0.4,0.1c0.1,0,0.2-0.1,0.3-0.2c0-0.1,0.1-0.2,0.2-0.6L58.3,5
			c0.1-0.3,0.2-0.5,0.1-0.6c0-0.1-0.1-0.2-0.1-0.3C58.3,4,58.1,3.9,58,3.9l-0.2-0.1l0.1-0.2l2.8,0.9c0.7,0.2,1.3,0.5,1.7,0.9
			C62.7,5.8,63,6.4,63.2,7c0.1,0.6,0.1,1.2-0.1,1.8c-0.1,0.4-0.3,0.8-0.6,1.1c-0.3,0.3-0.5,0.6-0.8,0.7c-0.3,0.2-0.6,0.3-1,0.3
			c-0.3,0.1-0.7,0-1.2,0c-0.2,0-0.5-0.1-0.9-0.2 M60,4.7l-1.6,4.8c-0.1,0.3-0.1,0.4-0.1,0.5c0,0.1,0,0.1,0.1,0.2
			c0.1,0.1,0.2,0.1,0.3,0.2c0.5,0.2,1,0.1,1.3-0.1c0.5-0.4,0.9-1,1.3-2c0.3-0.8,0.3-1.5,0.2-2c-0.1-0.4-0.3-0.8-0.5-1
			C60.9,5.1,60.6,4.9,60,4.7"/>
		<path class="st4" d="M65.4,13.4l-0.1,0.2l-3.1-1.4l0.1-0.2l0.2,0.1c0.2,0.1,0.3,0.1,0.5,0.1c0.1,0,0.2,0,0.3-0.1
			c0.1-0.1,0.2-0.2,0.3-0.5l1.8-3.9c0.1-0.3,0.2-0.5,0.2-0.6c0-0.1,0-0.2-0.1-0.3c-0.1-0.1-0.2-0.2-0.4-0.3l-0.2-0.1L65,6.2l3.1,1.4
			L68,7.7l-0.2-0.1c-0.2-0.1-0.3-0.1-0.5-0.1c-0.1,0-0.2,0-0.3,0.1c-0.1,0.1-0.2,0.2-0.3,0.5L65,12.1c-0.1,0.3-0.2,0.5-0.2,0.6
			c0,0.1,0,0.2,0.1,0.3c0.1,0.1,0.2,0.2,0.4,0.3"/>
		<path class="st4" d="M77.5,14.2l-1.1,1.4l-0.1-0.1c0.2-0.4,0.3-0.7,0.3-0.9c0-0.2,0-0.4-0.1-0.7c-0.1-0.1-0.2-0.3-0.4-0.5
			l-0.4-0.3l-3.2,3.9c-0.2,0.3-0.3,0.4-0.4,0.5c0,0.1,0,0.2,0,0.3c0,0.1,0.1,0.2,0.3,0.3l0.2,0.1l-0.1,0.1l-2.6-2.1l0.1-0.1l0.2,0.1
			c0.1,0.1,0.3,0.2,0.4,0.2c0.1,0,0.2,0,0.3-0.1c0.1,0,0.2-0.2,0.4-0.4l3.2-3.9L74,11.9c-0.3-0.3-0.6-0.4-0.9-0.4
			c-0.4,0-0.7,0.2-1.1,0.5l-0.1-0.1l1.1-1.4"/>
		<path class="st4" d="M80.6,17.4c0.7,0.8,1,1.6,1,2.5c-0.1,0.9-0.5,1.7-1.2,2.3c-0.6,0.5-1.3,0.8-2.1,0.9c-1,0.1-2-0.3-2.7-1.2
			c-0.8-0.9-1.1-1.8-0.9-2.8c0.1-0.8,0.5-1.5,1.2-2c0.7-0.6,1.6-0.9,2.5-0.8C79.2,16.2,80,16.7,80.6,17.4 M80.4,17.7
			c-0.4-0.4-0.9-0.6-1.6-0.4c-0.5,0.1-1.2,0.5-1.9,1.1c-0.8,0.7-1.3,1.4-1.5,2.1c-0.1,0.4,0,0.9,0.3,1.2c0.2,0.3,0.5,0.4,0.7,0.5
			c0.3,0.1,0.7,0,1.2-0.1c0.4-0.2,0.9-0.5,1.5-1c0.6-0.6,1.1-1,1.3-1.5c0.2-0.4,0.3-0.8,0.3-1.1C80.7,18.2,80.6,17.9,80.4,17.7"/>
		<path class="st4" d="M83.4,33.7l-0.2,0.1l-1.3-3.1l0.2-0.1l0.1,0.2c0.1,0.2,0.2,0.3,0.3,0.4c0.1,0.1,0.2,0.1,0.3,0.1
			c0.1,0,0.3-0.1,0.6-0.2l4-1.7c0.3-0.1,0.5-0.2,0.6-0.3c0.1-0.1,0.1-0.2,0.1-0.3c0-0.1,0-0.3-0.1-0.4l-0.1-0.2l0.2-0.1l1.3,3.1
			l-0.2,0.1L89,31.1c-0.1-0.2-0.2-0.3-0.3-0.4c-0.1-0.1-0.2-0.1-0.3-0.1c-0.1,0-0.3,0.1-0.6,0.2l-4,1.7c-0.3,0.1-0.5,0.2-0.6,0.3
			c-0.1,0.1-0.1,0.2-0.1,0.3c0,0.1,0,0.3,0.1,0.4"/>
		<path class="st4" d="M90.3,34.9L87.2,39l2.7-0.7c0.4-0.1,0.6-0.2,0.7-0.4c0.1-0.2,0.2-0.5,0.1-0.8l0.2,0l0.6,2.1l-0.2,0
			c-0.1-0.3-0.2-0.4-0.3-0.5c-0.1-0.1-0.2-0.1-0.3-0.1c-0.1,0-0.4,0-0.7,0.1l-5.3,1.4l0-0.2l4.1-5.7l-4,1.1
			c-0.4,0.1-0.6,0.2-0.7,0.5c-0.1,0.2-0.1,0.4,0,0.6l0,0.2l-0.2,0l-0.6-2.2l0.2,0c0.1,0.3,0.2,0.6,0.4,0.7c0.2,0.1,0.4,0.1,0.8,0
			l4.5-1.2l0.1-0.2c0.1-0.2,0.2-0.3,0.2-0.4c0-0.1,0-0.3,0-0.5l0.2,0"/>
		<path class="st4" d="M91.9,43.7c0.1,1-0.1,1.9-0.7,2.6c-0.6,0.7-1.4,1.1-2.3,1.2c-0.8,0.1-1.6-0.1-2.2-0.5
			c-0.9-0.6-1.4-1.4-1.5-2.6c-0.1-1.2,0.2-2.1,0.9-2.8c0.6-0.6,1.3-0.9,2.2-1c1-0.1,1.8,0.2,2.5,0.8C91.4,42,91.8,42.8,91.9,43.7
			 M91.6,43.8c-0.1-0.6-0.4-1-1-1.3c-0.5-0.2-1.2-0.3-2.2-0.2c-1.1,0.1-1.9,0.4-2.4,0.8c-0.3,0.3-0.5,0.7-0.5,1.2
			c0,0.3,0.1,0.6,0.3,0.8c0.2,0.3,0.6,0.5,1,0.6c0.5,0.1,1.1,0.1,1.8,0.1c0.9-0.1,1.5-0.2,1.9-0.4c0.4-0.2,0.7-0.4,0.8-0.7
			C91.5,44.4,91.6,44.1,91.6,43.8"/>
		<path class="st4" d="M13.9,65.9l-4.7,2.5c-0.4,0.2-0.6,0.3-0.7,0.4c-0.1,0.1-0.1,0.2-0.1,0.3c0,0.1,0,0.3,0.2,0.5l0.1,0.1
			l-0.1,0.1l-1.6-3L7,66.7l0.1,0.2c0.1,0.2,0.3,0.4,0.4,0.5c0.1,0.1,0.2,0.1,0.3,0.1c0.1,0,0.4-0.1,0.7-0.3l3-1.6
			c0.3-0.1,0.4-0.2,0.5-0.3c0.1-0.1,0.1-0.1,0.1-0.2c0-0.1,0-0.2-0.1-0.3c-0.1-0.1-0.2-0.3-0.4-0.5l0.1-0.2l2.1,1.6"/>
		<path class="st4" d="M15,72.8c0,0.6,0,1-0.2,1.3c-0.1,0.3-0.3,0.6-0.6,0.8c-0.4,0.3-0.9,0.4-1.4,0.3c-0.5-0.1-1-0.4-1.4-1
			c-0.4-0.5-0.6-1-0.5-1.5c0-0.5,0.2-0.9,0.6-1.1c0.3-0.2,0.6-0.3,0.9-0.3c0.3,0,0.7,0.1,1.2,0.4c0-0.6,0.1-1.1,0.2-1.4
			c0.1-0.3,0.3-0.5,0.6-0.7c0.3-0.3,0.8-0.3,1.2-0.2c0.5,0.1,0.9,0.4,1.3,0.9c0.4,0.5,0.5,1,0.5,1.4c0,0.4-0.2,0.8-0.5,1
			c-0.2,0.2-0.5,0.3-0.8,0.3C15.7,73.1,15.4,73,15,72.8 M15,72.3c0.2,0,0.4,0,0.6-0.1c0.2-0.1,0.4-0.2,0.6-0.3
			c0.3-0.2,0.5-0.5,0.6-0.8c0.1-0.2,0-0.4-0.1-0.6c-0.1-0.2-0.3-0.3-0.5-0.3c-0.2,0-0.4,0-0.6,0.2c-0.2,0.1-0.3,0.4-0.4,0.6
			C14.9,71.3,14.9,71.8,15,72.3 M13.6,72.2c-0.1,0-0.2,0-0.3,0c-0.1,0-0.3,0.1-0.5,0.2c-0.2,0.1-0.4,0.2-0.6,0.3
			c-0.2,0.2-0.4,0.4-0.5,0.6c-0.1,0.2-0.2,0.4-0.2,0.5c0,0.2,0.1,0.3,0.2,0.4c0.1,0.2,0.3,0.3,0.6,0.3c0.2,0,0.5-0.1,0.7-0.2
			C13.4,73.9,13.6,73.2,13.6,72.2"/>
		<path class="st4" d="M20,74.2l-2.3,1.2c0.1,0.1,0.2,0.2,0.3,0.3c0.6,0.6,0.9,1.3,0.9,1.7c0,0.7-0.5,1.1-1,1.5
			c-0.2,0.2-0.5,0.4-0.7,0.4c-0.5,0.1-1-0.3-1-0.6c0-0.4,0.2-0.6,0.2-0.8c0-0.1,0-0.3-0.1-0.4c0-0.1-0.1-0.2-0.3-0.3
			c-0.1-0.1-0.3-0.1-0.4,0c-0.2,0.1-0.3,0.2-0.4,0.4c-0.1,0.4-0.2,0.6,0.1,1.2c0.2,0.5,1.1,1,1.5,1.2c0.4,0.1,0.9,0.1,1.3,0
			c0.4-0.1,0.8-0.3,1.1-0.6c0.4-0.4,0.6-1,0.6-1.6c-0.1-0.8-0.6-1.7-1.4-2.5l0.6-0.3l1.2,1.1c0.3,0.3,1,0.7,1.5,0.5l0.5-0.2"/>
		<path class="st4" d="M19.8,83l0.1-0.1c0.5,0.2,1,0.3,1.4,0.3c0.4,0,0.9-0.1,1.2-0.2c0.4-0.2,0.7-0.4,1.1-0.7
			c-0.2,0-0.4-0.1-0.5-0.1c-0.1,0-0.3-0.1-0.4-0.2c-0.4-0.3-0.6-0.7-0.7-1.1c-0.1-0.5,0.1-1,0.4-1.5c0.2-0.3,0.5-0.6,0.9-0.8
			c0.4-0.2,0.7-0.3,1.1-0.2c0.4,0,0.7,0.1,1,0.4c0.3,0.2,0.5,0.5,0.7,0.9c0.2,0.4,0.2,0.8,0.1,1.2c-0.1,0.5-0.3,0.9-0.6,1.3
			c-0.4,0.6-0.9,1-1.5,1.3c-0.6,0.3-1.3,0.5-2.1,0.4C21.3,83.7,20.6,83.4,19.8,83 M23.9,81.9c0.2-0.3,0.4-0.5,0.6-0.8
			c0.3-0.5,0.6-1,0.8-1.5c0.1-0.3,0.1-0.5,0.1-0.7c0-0.1-0.1-0.2-0.2-0.3c-0.1-0.1-0.3-0.1-0.4,0c-0.2,0.1-0.5,0.3-0.8,0.8
			c-0.5,0.7-0.8,1.3-0.8,1.7c0,0.3,0.1,0.5,0.3,0.6C23.5,81.9,23.7,81.9,23.9,81.9"/>
		<path class="st4" d="M69,78.7l3,4.4c0.2,0.3,0.4,0.5,0.5,0.6c0.1,0.1,0.2,0.1,0.3,0.1c0.1,0,0.3-0.1,0.5-0.2l0.1-0.1l0.1,0.1
			l-2.9,1.9l-0.1-0.1l0.1-0.1c0.2-0.2,0.4-0.3,0.4-0.4c0.1-0.1,0.1-0.2,0.1-0.4c0-0.1-0.2-0.3-0.4-0.7l-1.9-2.8
			c-0.2-0.3-0.3-0.4-0.4-0.5c-0.1,0-0.1-0.1-0.2-0.1c-0.1,0-0.2,0-0.3,0.1c-0.1,0.1-0.3,0.2-0.4,0.5L67.5,81l1.4-2.2"/>
		<path class="st4" d="M76.2,81.8l-0.1-0.1c0.3-0.4,0.5-0.9,0.6-1.3c0.1-0.4,0.1-0.8,0.1-1.2c-0.1-0.4-0.2-0.8-0.5-1.2
			c-0.1,0.2-0.2,0.4-0.2,0.5c-0.1,0.1-0.2,0.2-0.3,0.3c-0.4,0.3-0.8,0.5-1.3,0.4c-0.5,0-0.9-0.3-1.3-0.8c-0.3-0.3-0.5-0.7-0.6-1.1
			c-0.1-0.4-0.1-0.8,0-1.1c0.1-0.4,0.3-0.7,0.6-0.9c0.3-0.3,0.6-0.4,1-0.5c0.4-0.1,0.8,0,1.2,0.2c0.4,0.2,0.8,0.5,1.2,0.8
			c0.5,0.5,0.8,1.1,1,1.8c0.2,0.7,0.2,1.4-0.1,2.1C77.2,80.5,76.8,81.2,76.2,81.8 M76.1,77.6c-0.2-0.3-0.4-0.5-0.6-0.7
			c-0.4-0.4-0.8-0.8-1.2-1.1c-0.2-0.2-0.5-0.2-0.7-0.2c-0.1,0-0.2,0-0.3,0.1c-0.1,0.1-0.2,0.2-0.1,0.4c0,0.2,0.2,0.5,0.6,0.9
			c0.6,0.7,1.1,1,1.5,1.2c0.2,0.1,0.5,0,0.6-0.1C75.9,78,76,77.8,76.1,77.6"/>
		<path class="st4" d="M81.2,71.4c0.5,0.4,0.9,0.8,1.3,1.3c0.2,0.3,0.3,0.6,0.4,0.9c0.1,0.3,0.1,0.6,0,0.8c0,0.3-0.1,0.5-0.3,0.7
			c-0.2,0.2-0.4,0.4-0.7,0.5c-0.3,0.1-0.6,0.1-1,0.1c-0.3,0-0.6-0.1-0.9-0.2c-0.5-0.2-0.9-0.5-1.3-0.8c-0.6-0.4-1-0.9-1.4-1.4
			c-0.3-0.4-0.4-0.9-0.4-1.3c0-0.4,0.1-0.8,0.3-1.1c0.2-0.3,0.6-0.5,1-0.6c0.4-0.1,0.8-0.1,1.3,0.1C80,70.6,80.6,71,81.2,71.4
			 M80.3,72.5c-0.9-0.7-1.4-1.1-1.6-1.2C78.3,71.1,78,71,77.8,71c-0.1,0-0.3,0.1-0.4,0.2c-0.1,0.1-0.1,0.2-0.1,0.3
			c0,0.2,0.1,0.3,0.3,0.6c0.2,0.2,1,0.8,2.3,1.9c0.7,0.6,1.2,0.9,1.5,1.1c0.2,0.1,0.4,0.1,0.5,0.1c0.1,0,0.2-0.1,0.3-0.2
			c0.1-0.1,0.1-0.3,0.1-0.4c-0.1-0.2-0.2-0.4-0.5-0.7L80.3,72.5z"/>
		<path class="st4" d="M81.3,63.6l0.1,0.1c-0.1,0.6-0.1,1.1,0,1.5c0.1,0.4,0.2,0.8,0.5,1.1c0.2,0.3,0.5,0.6,0.9,0.9
			c0-0.2,0-0.3,0-0.4c0-0.2,0.1-0.4,0.2-0.6c0.2-0.5,0.5-0.8,1-0.9c0.5-0.2,1-0.1,1.5,0.1c0.4,0.2,0.7,0.4,1,0.7
			c0.3,0.3,0.4,0.6,0.5,1c0.1,0.4,0,0.7-0.1,1.1c-0.2,0.4-0.4,0.7-0.7,0.9c-0.3,0.2-0.7,0.4-1.2,0.4c-0.5,0-0.9-0.1-1.4-0.3
			c-0.7-0.3-1.2-0.7-1.7-1.3c-0.4-0.6-0.7-1.2-0.8-2C80.8,65.1,80.9,64.4,81.3,63.6 M83.1,67.3c0.4,0.2,0.6,0.4,0.8,0.5
			c0.4,0.2,0.8,0.4,1.2,0.5c0.4,0.1,0.7,0.2,0.9,0.1c0.2,0,0.3-0.1,0.3-0.2c0.1-0.1,0.1-0.3,0-0.5c-0.1-0.2-0.4-0.4-0.8-0.7
			c-0.8-0.4-1.4-0.7-1.8-0.6c-0.3,0-0.4,0.1-0.6,0.3C83.2,66.9,83.1,67,83.1,67.3"/>
		<path class="st4" d="M85.7,24.6c-0.1-0.4-0.4-0.9-0.8-1.5l-1.7-2.5L83,20.6c0.2,0.2,0.3,0.4,0.3,0.6c0,0.1,0,0.2-0.1,0.3
			c0,0.1-0.2,0.2-0.5,0.4l-3.5,2.4c-0.3,0.2-0.5,0.3-0.6,0.3c-0.1,0-0.2,0-0.3-0.1c-0.1-0.1-0.2-0.2-0.4-0.5l-0.1,0.1l1.9,2.8
			l0.1-0.1c-0.2-0.2-0.3-0.4-0.3-0.6c0-0.1,0-0.2,0.1-0.3c0.1-0.1,0.2-0.2,0.5-0.4l1.5-1l0.2,0.4c-0.1,1.3-0.3,1.7-0.6,2.3
			c-0.6,1.1-0.4,1.3-0.3,1.7l0.7,1.1l0.1-0.1c-0.1-0.2-0.1-0.3-0.1-0.5c0-0.1,0.4-0.4,0.7-1.2c0.3-0.6,0.3-1.3,0.4-1.9
			c0.3,0.3,0.7,0.4,1,0.4c0.5,0.1,0.9,0,1.3-0.2c0.3-0.2,0.6-0.5,0.7-0.9C85.8,25.3,85.8,24.9,85.7,24.6 M84.8,24.3
			c-0.1,0.3-0.3,0.6-0.7,0.9c-0.3,0.2-0.6,0.3-0.8,0.3c-0.2,0-0.5,0-0.7-0.2c-0.2-0.1-0.4-0.4-0.7-0.8l-0.2-0.2l2.4-1.6l0.3,0.4
			C84.8,23.6,84.9,24,84.8,24.3"/>
		<path class="st4" d="M46.2,81.5c-0.3-0.1-0.4,0.4-0.5,0.7c-0.1,0.3-0.1,0.5-0.1,0.7c0,0.4,0.1,0.3,0.1,0.6c-0.3,0-0.4,0-0.7,0.1
			c-0.3,0.1-0.4,0.1-0.8,0.2c-0.2,0.1-0.5,0-0.7,0.2c-0.2,0.1-0.4,0.3-0.5,0.6c0,0.1-0.1,0.3-0.1,0.3c0,0.1,0.2,0.1,0.3,0.1
			c0.3,0,0.3-0.3,0.5-0.5c0.4-0.4,1.1-0.6,1.7-0.6c0.3,0,0.4,0.2,0.8,0.5c0.1,0.1,0.2,0,0.2-0.1c0.1-0.1,0.1-0.4,0.1-0.6
			c0.1-0.5,0.1-0.7,0.3-1.1c0.1-0.2,0-0.5-0.1-0.5c-0.1-0.1-0.3-0.2-0.4-0.3 M51.7,79.1c0-0.1-0.1-0.1-0.2-0.1l0.1,0.3
			C51.7,79.3,51.7,79.2,51.7,79.1 M50.9,79.1c-0.1-0.2-0.1-0.3-0.3-0.3v0.3C50.7,79.2,50.8,79.3,50.9,79.1 M55.1,79.2
			c0-0.1,0-0.1-0.1-0.2c-0.3-0.1-0.9-0.2-0.9,0.2H55.1z M51,79.9v-0.2c-0.2-0.1-0.3,0.1-0.3,0.2C50.8,79.9,50.9,79.8,51,79.9
			 M52.7,80c0.1-0.2-0.1-0.2-0.1-0.3c-0.2,0.1-0.2,0.2-0.1,0.3H52.7z M54.9,79.8c-0.1-0.3-0.5-0.1-0.6,0.1c0.1,0.2,0.2,0.2,0.4,0.2
			C54.8,80.1,54.9,79.9,54.9,79.8 M51.3,80.5c-0.1-0.1-0.2,0-0.3-0.1l0.1,0.2L51.3,80.5z M54.7,80.5l-1.9-0.1
			c-0.2,0.1,0,0.2,0.1,0.3C53.6,80.6,54.4,81.2,54.7,80.5 M44.9,81.3V81h-5l0.1,0.2C41.5,81.3,43.3,81.5,44.9,81.3 M51.5,81.3
			c0-0.1-0.1-0.1-0.2-0.1l-0.1,0.2C51.3,81.4,51.5,81.5,51.5,81.3 M54.5,81.3c-0.5-0.1-1.2-0.1-1.6,0C53.4,81.5,54.2,81.5,54.5,81.3
			 M44.8,81.9c-1.5-0.2-3,0-4.4-0.2l-0.3,0.2C41.6,82,43.3,82,44.8,81.9 M54.3,82.1c0,0-0.1-0.1-0.1-0.1c-0.4,0-0.9-0.4-1,0.1H54.3z
			 M52.7,82.1c-0.1-0.1-0.1-0.2-0.2-0.2c-0.1,0.1-0.2,0.4,0.1,0.4C52.6,82.2,52.7,82.2,52.7,82.1 M44.8,82.6c-1.4-0.2-2.9,0-4.2-0.2
			l-0.1,0.2C41.9,82.6,43.4,82.9,44.8,82.6L44.8,82.6z M54.1,82.8c-0.1-0.3-0.4-0.1-0.6-0.2c-0.2,0-0.2,0.2-0.1,0.3
			C53.6,83.2,54,83,54.1,82.8 M43.3,83.5v-0.3h-2.7l0.1,0.3H43.3z M53.7,83.5c-0.1-0.1-0.4,0-0.6-0.1c0,0.2,0.2,0.3,0.4,0.2
			C53.6,83.7,53.7,83.6,53.7,83.5 M42.6,84.1c-0.5-0.1-1.4-0.2-1.7,0C41.5,84.2,42.1,84.2,42.6,84.1 M53.3,84.3
			c-0.4-0.5-1-0.1-1.5,0C52.3,84.4,52.9,84.3,53.3,84.3L53.3,84.3z M42.5,84.9c-0.3-0.2-0.7-0.1-1.1-0.1V85L42.5,84.9z M47.7,84.9
			c-0.9,0.1-1.8-0.2-2.7-0.1l0.1,0.2l2.3,0.1C47.6,85.1,47.7,85,47.7,84.9 M52.9,85.1v-0.2h-1.7v0.3L52.9,85.1z M48,85.7
			c-2.2-0.1-4.1-0.2-6.2-0.2l-0.1,0.2C43.9,85.6,46,86,48,85.7 M52.6,85.7c-0.5,0-1.4-0.1-1.7,0.1l1.7,0.1V85.7z M47.8,86.2
			c-1.9,0-4.1,0-5.7,0l0.1,0.3l5.8,0.1C48,86.4,47.8,86.3,47.8,86.2 M52.1,86.5c-0.3-0.4-1,0-1.3,0C51.2,86.5,51.8,86.8,52.1,86.5
			 M47.3,87c-1.5-0.1-3.1,0-4.7-0.1v0.2c1.4,0.2,2.8,0.1,4.5,0.2C47.2,87.3,47.3,87.2,47.3,87 M51.5,87.3c0-0.1,0-0.2-0.1-0.3
			c-0.5,0.1-1.3-0.3-1.4,0.3L51.5,87.3z M46.6,87.8c-1.1-0.1-2.3,0-3.4-0.1l-0.1,0.1l0.3,0.2L46.6,87.8z M50.7,88.1l0.3-0.3
			l-1.6-0.1V88c0.2,0.1,0.5-0.1,0.6,0.2c0,0.9-0.9,0-1.2,0.5c0.5,0,1,0.3,1.5,0.1c0.1-0.2-0.1-0.5,0.2-0.6
			C50.5,88,50.7,88,50.7,88.1 M46.6,88.6c-0.7-0.2-1.8-0.1-2.7-0.2v0.4L46.6,88.6L46.6,88.6z M46.7,89.4c-0.6-0.6-1.4,0.1-2-0.2
			c0.1,0.7,1.2,0.3,1.8,0.4L46.7,89.4z M49.6,89.3c-0.4-0.1-1.1-0.3-1.3,0.1c0.4,0.1,0.9,0.1,1.3,0V89.3z M48.9,90.1
			c-1.1-0.1-2.3,0-3.4-0.1l0.1,0.2l3.1,0.1C48.8,90.3,48.9,90.2,48.9,90.1 M47.9,90.8c-0.5,0.2-1.2-0.4-1.4,0.2L47.9,90.8L47.9,90.8
			z M48.3,66.9c-0.3-0.1-0.4-0.5-0.6-0.7c-0.6-0.2-0.4,0.6-1,0.7c-0.1-0.4-0.5-0.4-0.8-0.6c-0.3,0.2-0.2,0.5-0.5,0.7
			c-0.2,0.1-0.4-0.1-0.6-0.1c-0.3,1.2-1.5-0.3-1.6,0.9c0.7-0.2,1.3,0.5,1.8-0.3c0.5,1,0.7-0.4,1.4-0.1c0.6,1.2,1.2-1.1,1.9,0.5
			c0.3-0.1,0.6-0.9,1-0.2c0.4,0.7,1-0.3,1.5-0.1c-0.2-0.4-0.5,0.1-0.9-0.1c-0.3-0.3-0.5-0.7-0.6-1.1C48.8,66.2,48.6,66.8,48.3,66.9
			 M47,69.1c-0.3-0.2,0.3-0.7-0.2-0.6l-0.1,0.7C46.7,69.2,46.9,69.3,47,69.1 M50.1,70.4c-1.7-0.5-4.2-0.9-5.7,0.1
			c1.5,0.6,3.3,0.2,5,0.3L50.1,70.4z M44.3,72.3L44.3,72.3c-0.5-0.1-1-0.1-1.4,0H44.3z M45,72.4l6.4-0.1l-6.5-0.1L45,72.4z
			 M48.9,75.9c-1.1-1.9-3.1-2-4.4-3.2l-0.1,0.2c0.8,0.4,0,1.2,0.4,1.8c-0.1,0.6-1.3,1.8,0.1,2c0.2-0.2,0.4-0.5,0.6-0.3l-0.6,1l1,0.7
			c-0.4,0.3-0.9-0.3-1.4-0.5c-0.7-0.2-1.7-0.7-2.2-0.2h0.8c0.6,0.2,0.1,0.8,0.1,1.2c0.2,0.2,0.2,0.7,0.5,0.6
			c0.1-0.2-0.2-0.5-0.1-0.9c0-0.3,0.3-0.4,0.6-0.4l1.6,1.5c0.4,0.2,0.6-0.4,1.1-0.1c-0.1,0.4-0.7,0.5-1.2,0.6
			c0.4,0.5,0.6,1.1,1.1,1.5c1.8,0.6,0.8,2.8,1.9,4.1c0.5,1.5-1.8,1.7-1.4,3.2c0.7-0.1,0.4-0.8,0.7-1.2c0.3-1,1.9-1.1,1.6-2.4
			c0.2-1.1,1.3-1.8,2.3-1.9c-1.3-0.1-1.5-1.6-2.1-2.4c0.1-1.2-0.5-1.8-0.5-2.9C49.1,77.3,49.3,76.5,48.9,75.9 M43.9,73
			c-1.1-0.5-2.6-0.2-4-0.3L39.8,73C41.2,73,42.6,73.4,43.9,73 M54.9,73.1l-0.2-0.3h-8.5l-0.1,0.2l0.1,0.2
			C49.1,73.2,52,73.2,54.9,73.1 M44,73.7c-1.4-0.2-3-0.1-4.4-0.1v0.3C41.3,73.7,42.5,74.2,44,73.7L44,73.7z M54.9,73.7H48l0.2,0.3
			l6.8-0.1C55.1,73.8,54.9,73.7,54.9,73.7 M43.9,74.6L43.9,74.6c-1.5-0.2-2.8-0.1-4.4-0.2v0.2C40.9,74.7,42.5,74.7,43.9,74.6
			 M55.1,74.6c-2.1-0.1-4.3-0.1-6.3,0c1.9,0.4,4.3,0.2,6.3,0.2V74.6z M43.8,75.2c-1.4-0.1-2.8,0-4.2-0.1l0.1,0.2h4.1L43.8,75.2z
			 M55.2,75.5v-0.2l-5.5-0.1v0.3L55.2,75.5z M43.5,76.2v-0.3l-4.1-0.1L39.3,76C40.6,76.4,41.9,76.1,43.5,76.2 M55.2,76.1
			c-1.4-0.2-3.3-0.3-5-0.2v0.3C51.8,76.3,53.6,76.3,55.2,76.1L55.2,76.1z M42,76.7c-0.8-0.1-1.9-0.1-2.6,0
			C40.2,76.8,41.3,76.8,42,76.7 M55.3,76.8c-1.6-0.3-3.2,0-4.8-0.2c-0.1,0.2-0.4,0-0.2,0.2c0.6,0.3,1.4,0.2,2-0.1
			c0.8,0.7,2.1,0,3.1,0.2V76.8z M41.3,77.5c-0.3-0.5-1.2-0.2-1.8-0.3v0.3L41.3,77.5z M50.9,77.5c-0.2-0.1-0.4,0-0.5,0.1
			c0.1,0.1,0.2,0.1,0.3,0.2C50.8,77.7,50.9,77.6,50.9,77.5 M55.2,77.8v-0.2l-1.7-0.1c-0.2,0.5,0.9,0.5,0.4,1.1
			c0.3,0,0.9,0.1,1.3-0.1v-0.1c-0.3-0.2-0.7,0.1-1-0.3C54.3,77.5,54.8,78.1,55.2,77.8 M53.1,78.4c-0.1-0.2-0.2-0.7-0.6-0.6
			c-0.2,0.4,0.4,0.8,0.6,1.2C53.1,78.8,53,78.6,53.1,78.4 M41.9,78.2c-0.7-0.3-1.6-0.1-2.3-0.2l-0.1,0.2c0.7,0.4,1.6,0.2,2.4,0.2
			V78.2z M42.7,79c-0.8-0.3-2.1-0.1-3.2-0.2V79C40.7,79,41.7,79.1,42.7,79 M46.2,64.5c-0.2,0.3-0.3,0.7-0.1,1.1l0.5,0.5
			c0.2-0.3,0.6-0.5,0.5-0.9c-0.3-0.2-0.4-0.6-0.2-1c0.2-0.3,0.6-0.4,1-0.2c0.3,0.1,0.4,0.6,0.3,0.9c-0.4,0.2-0.2,0.5-0.3,0.8
			l0.4,0.4c0.4,0,0.4-0.5,0.7-0.7c-0.1-0.3-0.5-0.8,0-1.2c0.1-0.3,0.6-0.4,0.8-0.1c0.4,0.2,0.2,0.5,0.2,0.8
			c-0.2,0.3-0.7,0.4-0.5,0.8c0.2,0.2,0.4,0.5,0.6,0.2c0.6-0.4,0.1-1.4,0.8-1.7c0.4,0,0.7,0.3,0.8,0.6c0.2,0.6-1,0.8-0.5,1.3
			c1.2,0.2,0.4-1.7,1.7-1.4c0.1,0.3,0.8,0.7,0.2,1.1c-0.3,0.2-0.8,0.4-0.6,0.8c0.8,0.3,1.6-1.7,2.2-0.2c0.1,0.4-0.4,0.5-0.6,0.8
			c-1.1-0.2-1.5,1-2.2,1.5c0.1,0.7-1,1.2-0.3,1.9l-1.2,0.9c1.4,0.7,3,0.4,4.5,0.1c1.2,3,0.9,6.9,0.1,10c-0.3,0.7-0.6,1.5-1,2.2
			c-1.6,3.2-3.8,6.3-6.9,8.3c-6.7-4-9.7-11.8-8.2-19.2c0-0.7,0.4-1.5,1.3-1.1c1.1,0.3,2.3,0.1,3.2-0.4c-0.2-0.5-1.3-0.6-0.7-1.3
			c0.2-0.6-0.9-0.9-0.6-1.6c-0.7-0.7-1.3-1.7-2.4-1.8c-0.1-0.2,0-0.4-0.1-0.6c0.2-0.3,0.7-0.4,1-0.2c0.3,0.5,0.7,0.9,1.2,1.1
			c0.1-0.1,0.2-0.1,0.3-0.2c-0.1-0.7-1.3-0.6-1-1.6c0.2-0.3,0.6-0.5,1-0.3c0.5,0.4,0.2,1.5,1.2,1.5c0.8-0.8-1.7-1.4,0-2.1
			c0.4-0.1,0.8,0.2,0.8,0.6c-0.3,0.5,0.1,1,0.4,1.3c0.3,0,0.4-0.4,0.5-0.6c-0.2-0.3-0.6-0.7-0.5-1.2C45.3,63.7,46.2,63.7,46.2,64.5"
			/>
		<rect x="243.9" y="0.2" class="st4" width="0.8" height="93.4"/>
	</g>
</g>
</svg>
