<?xml version="1.0" encoding="utf-8"?>
<!-- Generator: Adobe Illustrator 24.1.0, SVG Export Plug-In . SVG Version: 6.00 Build 0)  -->
<svg version="1.1" id="Layer_1" xmlns="http://www.w3.org/2000/svg" xmlns:xlink="http://www.w3.org/1999/xlink" x="0px" y="0px"
	 viewBox="0 0 72.7 23" style="enable-background:new 0 0 72.7 23;" xml:space="preserve">
<style type="text/css">
	.st0{fill-rule:evenodd;clip-rule:evenodd;fill:#FFFFFF;}
</style>
<path class="st0" d="M0,10.3V0.4h12.8V5H4.6v5.3H0z"/>
<path class="st0" d="M15.8,10.3V0.4h12.8V5h-8.2v5.3L15.8,10.3z"/>
<path class="st0" d="M15.8,13h4.6v5.3h8.2v4.6H15.8V13z"/>
<path class="st0" d="M31.7,22.9v-9.9h4.6v5.3h8.2v4.6L31.7,22.9z"/>
<path class="st0" d="M0,18.3h8.2v-5.3h4.6v9.9H0V18.3z"/>
<path class="st0" d="M42.8,2.3L42,2.4c-0.1-0.4-0.4-0.6-0.9-0.6c-0.4,0-0.7,0.1-0.7,0.4c0,0.2,0.2,0.4,0.6,0.4l0.4,0.1
	c0.7,0.2,1.4,0.4,1.4,1.1c0,0.8-0.7,1.2-1.6,1.2c-1,0-1.6-0.5-1.7-1.2l0.8-0.1c0.1,0.4,0.4,0.7,0.9,0.7C41.7,4.4,42,4.3,42,4
	c0-0.3-0.3-0.4-0.7-0.5l-0.5-0.1c-0.6-0.1-1.2-0.4-1.2-1.1c0-0.7,0.7-1.1,1.5-1.1C42,1.2,42.7,1.6,42.8,2.3z M45.1,5.1
	c-1.2,0-1.8-0.8-1.8-1.9c0-1.1,0.7-1.9,1.8-1.9c1.2,0,1.8,0.9,1.8,2.2h-2.8c0,0.6,0.4,1,1,1c0.5,0,0.8-0.2,0.9-0.6l0.8,0.1
	C46.7,4.5,46.1,5.1,45.1,5.1z M45.1,1.9c-0.5,0-0.9,0.3-1,0.9H46C46,2.2,45.6,1.9,45.1,1.9z M48.4,1.3v0.5c0.2-0.3,0.6-0.5,1.1-0.5
	c0.5,0,0.8,0.2,1,0.5c0.2,0.2,0.2,0.5,0.2,1V5H50V2.9c0-0.4,0-0.7-0.2-0.8c-0.1-0.1-0.3-0.2-0.5-0.2c-0.6,0-0.9,0.5-0.9,1.2V5h-0.8
	V1.3H48.4z M54.6,2.3l-0.8,0.1c-0.1-0.4-0.4-0.6-0.9-0.6c-0.4,0-0.7,0.1-0.7,0.4c0,0.2,0.2,0.4,0.6,0.4l0.4,0.1
	c0.7,0.2,1.4,0.4,1.4,1.1c0,0.8-0.7,1.2-1.6,1.2c-1,0-1.6-0.5-1.7-1.2l0.8-0.1c0.1,0.4,0.4,0.7,0.9,0.7c0.5,0,0.8-0.2,0.8-0.5
	c0-0.3-0.3-0.4-0.7-0.5l-0.5-0.1C52,3.2,51.5,3,51.5,2.3c0-0.7,0.7-1.1,1.5-1.1C53.8,1.2,54.5,1.6,54.6,2.3z M56.9,5.1
	c-1.2,0-1.8-0.8-1.8-1.9c0-1.1,0.7-1.9,1.8-1.9c1.2,0,1.8,0.9,1.8,2.2h-2.8c0,0.6,0.4,1,1,1c0.5,0,0.8-0.2,0.9-0.6l0.8,0.1
	C58.5,4.5,57.9,5.1,56.9,5.1z M56.9,1.9c-0.5,0-0.9,0.3-1,0.9h1.9C57.8,2.2,57.4,1.9,56.9,1.9z M60,2.4l-0.8,0
	c0.1-0.7,0.6-1.2,1.6-1.2c1.1,0,1.5,0.4,1.5,1.4c0,0.2,0,0.9,0,1.1c0,0.5,0,0.9,0.1,1.3h-0.8l0-0.4c-0.2,0.3-0.6,0.5-1.2,0.5
	c-0.8,0-1.3-0.6-1.3-1.2c0-0.4,0.2-0.6,0.4-0.8c0.3-0.2,0.8-0.3,1.3-0.4l0.7-0.1V2.5c0-0.5-0.3-0.7-0.7-0.7C60.4,1.8,60.1,2,60,2.4z
	 M61.6,3.4V3.2l-0.7,0.1C60.3,3.4,60,3.5,60,3.9c0,0.3,0.2,0.5,0.6,0.5C61.1,4.4,61.6,4.1,61.6,3.4z M63.2,5V0h0.8v1.7
	c0.2-0.3,0.6-0.5,1.1-0.5c0.9,0,1.6,0.7,1.6,1.9c0,1.2-0.7,1.9-1.6,1.9c-0.5,0-0.8-0.2-1-0.5L64,5H63.2z M65,1.9
	c-0.5,0-0.9,0.4-0.9,1.3C64,4,64.4,4.4,65,4.4c0.6,0,0.9-0.5,0.9-1.2C65.9,2.4,65.5,1.9,65,1.9z M68.2,0v5h-0.8V0H68.2z M70.7,5.1
	c-1.2,0-1.8-0.8-1.8-1.9c0-1.1,0.7-1.9,1.8-1.9c1.2,0,1.8,0.9,1.8,2.2h-2.8c0,0.6,0.4,1,1,1c0.5,0,0.8-0.2,0.9-0.6l0.8,0.1
	C72.2,4.5,71.7,5.1,70.7,5.1z M70.7,1.9c-0.5,0-0.9,0.3-1,0.9h1.9C71.6,2.2,71.2,1.9,70.7,1.9z"/>
<path class="st0" d="M41.4,7.9c0.8,0,1.5,0.5,1.6,1.3l-0.8,0.1c-0.1-0.4-0.4-0.7-0.9-0.7c-0.5,0-0.9,0.4-0.9,1.2
	c0,0.8,0.4,1.3,0.9,1.3c0.4,0,0.8-0.2,0.9-0.7l0.8,0.1c-0.2,0.8-0.9,1.3-1.7,1.3c-1.1,0-1.8-0.8-1.8-1.9C39.6,8.7,40.3,7.9,41.4,7.9
	z M43.7,8h0.8v3.7h-0.8V8z M43.7,6.7h0.8v0.8h-0.8V6.7z M45.6,8V6.9h0.8V8h0.7v0.6h-0.7v1.9c0,0.4,0.1,0.5,0.4,0.5h0.3v0.7h-0.6
	c-0.8,0-1-0.2-1-1v-2H45V8H45.6z M48,13h-0.4v-0.7H48c0.4,0,0.5,0,0.7-0.5l0-0.1L47.3,8h0.9l0.8,2.6L49.9,8h0.8l-1.3,3.7
	C49.1,12.6,48.9,13,48,13z M53.7,6.7v5h-0.8v-5H53.7z M55.3,9.1l-0.8,0c0.1-0.7,0.6-1.2,1.6-1.2c1.1,0,1.5,0.4,1.5,1.4
	c0,0.2,0,0.9,0,1.1c0,0.5,0,0.9,0.1,1.3h-0.8l0-0.4c-0.2,0.3-0.6,0.5-1.2,0.5c-0.8,0-1.3-0.6-1.3-1.2c0-0.4,0.2-0.6,0.4-0.8
	c0.3-0.2,0.8-0.3,1.3-0.4l0.7-0.1V9.2c0-0.5-0.3-0.7-0.7-0.7C55.6,8.5,55.3,8.8,55.3,9.1z M56.9,10.1V9.9L56.2,10
	c-0.6,0.1-0.9,0.2-0.9,0.6c0,0.3,0.2,0.5,0.6,0.5C56.4,11.1,56.9,10.8,56.9,10.1z M58.5,11.7v-5h0.8v1.7c0.2-0.3,0.6-0.5,1.1-0.5
	c0.9,0,1.6,0.7,1.6,1.9c0,1.2-0.7,1.9-1.6,1.9c-0.5,0-0.8-0.2-1-0.5l0,0.4H58.5z M60.2,8.6c-0.5,0-0.9,0.4-0.9,1.3
	c0,0.8,0.4,1.2,0.9,1.2c0.6,0,0.9-0.5,0.9-1.2C61.1,9.1,60.8,8.6,60.2,8.6z M63.3,11.7h-0.9v-0.9h0.9V11.7z"/>
</svg>
