<?xml version="1.0" encoding="iso-8859-1"?>
<!-- Generator: Adobe Illustrator 21.1.0, SVG Export Plug-In . SVG Version: 6.00 Build 0)  -->
<svg version="1.1" id="Layer_1" xmlns="http://www.w3.org/2000/svg" xmlns:xlink="http://www.w3.org/1999/xlink" x="0px" y="0px"
	 viewBox="0 0 272.593 54" style="enable-background:new 0 0 272.593 54;" xml:space="preserve">
<g>
	<rect x="52" y="8.007" style="fill:#EDEDED;" width="20" height="8"/>
</g>
<g>
	<rect x="13" y="8.007" style="fill:#EDEDED;" width="8" height="26"/>
</g>
<g>
	<rect x="26" y="8.007" style="fill:#EDEDED;" width="8" height="38"/>
</g>
<g>
	<rect y="8.007" style="fill:#EDEDED;" width="8" height="38"/>
</g>
<g>
	<rect x="52" y="21.007" style="fill:#EDEDED;" width="8" height="25"/>
</g>
<g>
	<rect x="39" y="8.007" style="fill:#EDEDED;" width="8" height="8"/>
</g>
<g>
	<rect x="39" y="21.007" style="fill:#9A9A9A;" width="8" height="25"/>
</g>
<rect x="88" style="fill:#EDEDED;" width="1" height="54"/>
<g>
	<path style="fill:#F0EFED;" d="M116.469,18.512c0,4.277-2.69,5.817-6.761,5.817c-1.862,0-4.139-0.322-5.381-1.058V19.5
		c0.805,0.46,2.737,1.333,5.013,1.333c2.598,0,3.357-0.805,3.357-1.978c0-1.311-0.575-1.748-2.323-1.978
		c-4.369-0.575-6.048-1.863-6.048-5.243c0-3.127,1.909-5.197,6.462-5.197c2.345,0,4.07,0.414,4.875,0.851v3.564
		c-0.943-0.46-2.852-0.919-4.599-0.919c-1.909,0-2.966,0.598-2.966,1.702c0,1.242,0.667,1.632,2.46,1.885
		C114.376,14.05,116.469,14.833,116.469,18.512z"/>
	<path style="fill:#F0EFED;" d="M126.589,24.007l-0.46-0.828c-1.288,0.782-2.736,1.149-4.001,1.149
		c-3.127,0-4.024-1.655-4.024-3.863V12.51h3.679v7.404c0,0.851,0.299,1.426,1.288,1.426c0.897,0,1.702-0.368,2.046-0.598V12.51
		h3.679v11.498H126.589z"/>
	<path style="fill:#F0EFED;" d="M139.469,15.867c-1.058-0.437-2.368-0.736-3.702-0.736c-1.035,0-1.609,0.23-1.609,0.805
		c0,0.598,0.391,0.736,1.149,0.805c3.634,0.322,4.646,1.288,4.646,3.679c0,2.208-1.311,3.909-5.197,3.909
		c-2.115,0-3.334-0.391-4.186-0.736v-3.081c1.081,0.46,2.645,0.874,4.094,0.874c1.172,0,1.701-0.23,1.701-0.805
		c0-0.598-0.391-0.736-1.149-0.805c-3.634-0.322-4.646-1.288-4.646-3.679c0-2.346,1.518-3.909,5.06-3.909
		c2.093,0,3.081,0.276,3.84,0.598V15.867z"/>
	<path style="fill:#F0EFED;" d="M148.945,24.099c-0.506,0.138-1.379,0.23-1.885,0.23c-3.22,0-4.438-1.356-4.438-4.07v-4.691h-1.862
		v-2.438l1.862-0.506v-2.369l3.679-0.989v3.242h2.852v3.059H146.3v4.392c0,0.896,0.346,1.402,1.518,1.402
		c0.483,0,0.943-0.092,1.127-0.138V24.099z"/>
	<path style="fill:#F0EFED;" d="M156.582,15.959c0-0.529-0.367-0.805-1.356-0.805c-1.448,0-3.128,0.437-4.14,0.874v-3.081
		c0.782-0.345,2.507-0.759,4.14-0.759c4.14,0,4.921,1.771,4.921,4.346v7.473h-2.207l-0.506-0.874
		c-0.828,0.736-2.001,1.196-3.381,1.196c-2.92,0-3.909-1.932-3.909-3.656c0-3.104,2.276-3.564,4.347-3.771l2.092-0.207V15.959z
		 M155.041,18.902c-1.034,0.138-1.448,0.644-1.448,1.541c0,0.851,0.552,1.357,1.334,1.357c0.667,0,1.288-0.184,1.655-0.552v-2.553
		L155.041,18.902z"/>
	<path style="fill:#F0EFED;" d="M164.057,6.991c1.219,0,2.185,0.966,2.185,2.185c0,1.242-0.966,2.184-2.185,2.184
		c-1.241,0-2.185-0.942-2.185-2.184C161.873,7.957,162.816,6.991,164.057,6.991z M166.816,24.099c0,0-0.482,0.092-1.057,0.092
		c-1.979,0-3.541-1.012-3.541-3.242V12.51h3.656v7.933c0,0.437,0.206,0.69,0.941,0.69V24.099z"/>
	<path style="fill:#F0EFED;" d="M170.634,12.51l0.461,0.828c1.287-0.782,2.736-1.149,4-1.149c3.128,0,4.025,1.656,4.025,3.863v7.956
		h-3.68v-7.404c0-0.851-0.299-1.426-1.287-1.426c-0.897,0-1.702,0.368-2.047,0.598v8.232h-3.68V12.51H170.634z"/>
	<path style="fill:#F0EFED;" d="M187.009,15.959c0-0.529-0.367-0.805-1.355-0.805c-1.449,0-3.128,0.437-4.14,0.874v-3.081
		c0.782-0.345,2.507-0.759,4.14-0.759c4.139,0,4.92,1.771,4.92,4.346v7.473h-2.207l-0.506-0.874c-0.828,0.736-2,1.196-3.381,1.196
		c-2.92,0-3.908-1.932-3.908-3.656c0-3.104,2.275-3.564,4.346-3.771l2.092-0.207V15.959z M185.469,18.902
		c-1.034,0.138-1.448,0.644-1.448,1.541c0,0.851,0.551,1.357,1.334,1.357c0.666,0,1.287-0.184,1.654-0.552v-2.553L185.469,18.902z"
		/>
	<path style="fill:#F0EFED;" d="M192.531,24.007V6.761h3.68v6.163c0.689-0.414,1.609-0.736,2.874-0.736
		c2.989,0,4.461,1.839,4.461,6.071c0,4.231-1.472,6.07-4.461,6.07c-1.84,0-2.921-0.552-3.726-1.242l-0.621,0.92H192.531z
		 M196.21,20.857c0,0,0.713,0.483,1.633,0.483c1.701,0,2.068-1.104,2.068-3.081c0-1.955-0.367-3.082-2.068-3.082
		c-0.92,0-1.633,0.483-1.633,0.483V20.857z"/>
	<path style="fill:#F0EFED;" d="M209.872,24.099c0,0-0.483,0.092-1.058,0.092c-1.978,0-3.541-1.012-3.541-3.242V6.761h3.656v13.682
		c0,0.437,0.207,0.69,0.942,0.69V24.099z"/>
	<path style="fill:#F0EFED;" d="M214.656,19.478c-0.092,1.495,0.689,1.931,2.483,1.931c1.725,0,3.013-0.345,3.841-0.759v2.875
		c-1.334,0.552-2.943,0.805-4.324,0.805c-3.793,0-5.633-1.932-5.633-6.07c0-4.139,1.816-6.071,5.381-6.071
		c4.92,0,5.266,3.679,4.967,7.29H214.656z M214.656,17.224h3.266c0.207-1.265-0.069-2.276-1.473-2.276
		C215.208,14.947,214.656,15.775,214.656,17.224z"/>
	<path style="fill:#F0EFED;" d="M104.443,41.558V29.762h3.679v11.611c0,2.23,1.449,2.622,2.736,2.622s2.736-0.392,2.736-2.622
		V29.762h3.679v11.796c0,4.737-3.794,5.771-6.416,5.771S104.443,46.295,104.443,41.558z"/>
	<path style="fill:#F0EFED;" d="M126.499,38.315c-0.185-0.046-0.644-0.093-1.127-0.093c-1.126,0-2.139,0.392-2.438,0.668v8.117
		h-3.679V35.51h2.208l0.46,0.828c0.575-0.553,1.817-1.15,3.542-1.15c0.459,0,0.874,0.092,1.035,0.161V38.315z"/>
	<path style="fill:#F0EFED;" d="M127.765,47.008V29.762h3.679v6.162c0.69-0.414,1.61-0.736,2.874-0.736
		c2.99,0,4.461,1.84,4.461,6.071s-1.471,6.07-4.461,6.07c-1.84,0-2.92-0.552-3.725-1.241l-0.621,0.92H127.765z M131.444,43.857
		c0,0,0.713,0.482,1.633,0.482c1.702,0,2.069-1.104,2.069-3.081c0-1.954-0.367-3.081-2.069-3.081c-0.92,0-1.633,0.482-1.633,0.482
		V43.857z"/>
	<path style="fill:#F0EFED;" d="M146.324,38.959c0-0.529-0.367-0.805-1.355-0.805c-1.449,0-3.128,0.438-4.14,0.873v-3.08
		c0.782-0.346,2.507-0.76,4.14-0.76c4.139,0,4.92,1.771,4.92,4.347v7.474h-2.207l-0.506-0.875c-0.828,0.736-2,1.196-3.381,1.196
		c-2.92,0-3.908-1.932-3.908-3.656c0-3.104,2.275-3.563,4.346-3.771l2.092-0.207V38.959z M144.784,41.902
		c-1.034,0.139-1.448,0.645-1.448,1.541c0,0.851,0.551,1.356,1.334,1.356c0.666,0,1.287-0.185,1.654-0.552v-2.553L144.784,41.902z"
		/>
	<path style="fill:#F0EFED;" d="M154.052,35.51l0.461,0.828c1.287-0.782,2.736-1.15,4-1.15c3.128,0,4.025,1.656,4.025,3.863v7.957
		h-3.68v-7.404c0-0.852-0.299-1.426-1.287-1.426c-0.897,0-1.702,0.367-2.047,0.598v8.232h-3.68V35.51H154.052z"/>
	<path style="fill:#F0EFED;" d="M166.449,29.991c1.219,0,2.186,0.966,2.186,2.185c0,1.242-0.967,2.184-2.186,2.184
		c-1.241,0-2.184-0.941-2.184-2.184C164.265,30.957,165.208,29.991,166.449,29.991z M169.208,47.1c0,0-0.482,0.092-1.058,0.092
		c-1.978,0-3.541-1.012-3.541-3.242V35.51h3.656v7.934c0,0.437,0.206,0.689,0.942,0.689V47.1z"/>
	<path style="fill:#F0EFED;" d="M170.36,47.008V44.34l5.013-5.656l-4.507,0.045V35.51h9.106v2.668l-5.014,5.656l5.289-0.046v3.22
		H170.36z"/>
	<path style="fill:#F0EFED;" d="M187.562,38.959c0-0.529-0.367-0.805-1.355-0.805c-1.449,0-3.128,0.438-4.14,0.873v-3.08
		c0.782-0.346,2.507-0.76,4.14-0.76c4.139,0,4.92,1.771,4.92,4.347v7.474h-2.207l-0.506-0.875c-0.828,0.736-2,1.196-3.381,1.196
		c-2.92,0-3.908-1.932-3.908-3.656c0-3.104,2.275-3.563,4.346-3.771l2.092-0.207V38.959z M186.022,41.902
		c-1.034,0.139-1.448,0.645-1.448,1.541c0,0.851,0.551,1.356,1.334,1.356c0.666,0,1.287-0.185,1.654-0.552v-2.553L186.022,41.902z"
		/>
	<path style="fill:#F0EFED;" d="M200.35,47.1c-0.506,0.138-1.38,0.229-1.886,0.229c-3.219,0-4.438-1.356-4.438-4.069v-4.691h-1.863
		v-2.438l1.863-0.506v-2.369l3.679-0.988v3.242h2.852v3.059h-2.852v4.393c0,0.896,0.345,1.402,1.518,1.402
		c0.483,0,0.942-0.092,1.127-0.139V47.1z"/>
	<path style="fill:#F0EFED;" d="M204.007,29.991c1.219,0,2.186,0.966,2.186,2.185c0,1.242-0.967,2.184-2.186,2.184
		c-1.241,0-2.184-0.941-2.184-2.184C201.824,30.957,202.766,29.991,204.007,29.991z M206.767,47.1c0,0-0.482,0.092-1.058,0.092
		c-1.978,0-3.541-1.012-3.541-3.242V35.51h3.656v7.934c0,0.437,0.206,0.689,0.942,0.689V47.1z"/>
	<path style="fill:#F0EFED;" d="M207.918,41.259c0-3.587,1.149-6.071,5.403-6.071c4.255,0,5.404,2.484,5.404,6.071
		s-1.149,6.07-5.404,6.07C209.068,47.329,207.918,44.846,207.918,41.259z M211.597,41.259c0,2.3,0.461,3.127,1.725,3.127
		c1.266,0,1.725-0.827,1.725-3.127s-0.459-3.128-1.725-3.128C212.058,38.131,211.597,38.959,211.597,41.259z"/>
	<path style="fill:#F0EFED;" d="M222.545,35.51l0.46,0.828c1.287-0.782,2.736-1.15,4.001-1.15c3.128,0,4.024,1.656,4.024,3.863
		v7.957h-3.68v-7.404c0-0.852-0.299-1.426-1.287-1.426c-0.896,0-1.701,0.367-2.047,0.598v8.232h-3.68V35.51H222.545z"/>
	<path style="fill:#F0EFED;" d="M241.29,43.65h6.968v3.357h-10.646V29.762h3.679V43.65z"/>
	<path style="fill:#F0EFED;" d="M255.48,38.959c0-0.529-0.367-0.805-1.356-0.805c-1.448,0-3.128,0.438-4.14,0.873v-3.08
		c0.782-0.346,2.507-0.76,4.14-0.76c4.14,0,4.921,1.771,4.921,4.347v7.474h-2.207l-0.506-0.875
		c-0.828,0.736-2.001,1.196-3.381,1.196c-2.92,0-3.909-1.932-3.909-3.656c0-3.104,2.276-3.563,4.347-3.771l2.092-0.207V38.959z
		 M253.939,41.902c-1.034,0.139-1.448,0.645-1.448,1.541c0,0.851,0.552,1.356,1.334,1.356c0.667,0,1.288-0.185,1.655-0.552v-2.553
		L253.939,41.902z"/>
	<path style="fill:#F0EFED;" d="M261.001,47.008V29.762h3.68v6.162c0.689-0.414,1.609-0.736,2.873-0.736
		c2.99,0,4.461,1.84,4.461,6.071s-1.471,6.07-4.461,6.07c-1.84,0-2.92-0.552-3.725-1.241l-0.621,0.92H261.001z M264.681,43.857
		c0,0,0.713,0.482,1.631,0.482c1.703,0,2.07-1.104,2.07-3.081c0-1.954-0.367-3.081-2.07-3.081c-0.918,0-1.631,0.482-1.631,0.482
		V43.857z"/>
</g>
</svg>
